<svg width="904" height="141" viewBox="0 0 904 141" fill="none" xmlns="http://www.w3.org/2000/svg">
<path d="M0.353353 88C0.353353 89.4728 1.54726 90.6667 3.02002 90.6667C4.49278 90.6667 5.68669 89.4728 5.68669 88C5.68669 86.5272 4.49278 85.3333 3.02002 85.3333C1.54726 85.3333 0.353353 86.5272 0.353353 88ZM903.02 88L898.02 85.1132V90.8868L903.02 88ZM3.02002 88V88.5H898.52V88V87.5H3.02002V88Z" fill="url(#paint0_linear_53_4857)"/>
<rect x="30.02" width="65" height="65" rx="32.5" fill="#312C13"/>
<path d="M62.004 41.5V25.66L63.036 26.788H58.212V24.7H64.38V41.5H62.004Z" fill="#F5F5F5"/>
<rect x="196.02" width="65" height="65" rx="32.5" fill="#312C13"/>
<path d="M222.408 41.5V39.868L229.248 33.268C229.856 32.692 230.304 32.188 230.592 31.756C230.896 31.308 231.096 30.9 231.192 30.532C231.304 30.148 231.36 29.78 231.36 29.428C231.36 28.564 231.056 27.884 230.448 27.388C229.84 26.892 228.952 26.644 227.784 26.644C226.888 26.644 226.08 26.796 225.36 27.1C224.64 27.388 224.016 27.844 223.488 28.468L221.856 27.052C222.496 26.236 223.352 25.612 224.424 25.18C225.512 24.732 226.704 24.508 228 24.508C229.168 24.508 230.184 24.7 231.048 25.084C231.912 25.452 232.576 25.988 233.04 26.692C233.52 27.396 233.76 28.228 233.76 29.188C233.76 29.732 233.688 30.268 233.544 30.796C233.4 31.324 233.128 31.884 232.728 32.476C232.328 33.068 231.752 33.732 231 34.468L224.904 40.348L224.328 39.412H234.48V41.5H222.408Z" fill="#F5F5F5"/>
<rect x="364.02" width="65" height="65" rx="32.5" fill="#312C13"/>
<path d="M395.808 41.692C394.624 41.692 393.472 41.508 392.352 41.14C391.248 40.772 390.344 40.276 389.64 39.652L390.744 37.756C391.304 38.284 392.032 38.716 392.928 39.052C393.824 39.388 394.784 39.556 395.808 39.556C397.056 39.556 398.024 39.292 398.712 38.764C399.416 38.22 399.768 37.492 399.768 36.58C399.768 35.7 399.432 34.996 398.76 34.468C398.104 33.924 397.056 33.652 395.616 33.652H394.272V31.972L399.264 25.828L399.6 26.788H390.408V24.7H401.496V26.332L396.528 32.452L395.28 31.708H396.072C398.104 31.708 399.624 32.164 400.632 33.076C401.656 33.988 402.168 35.148 402.168 36.556C402.168 37.5 401.936 38.364 401.472 39.148C401.008 39.932 400.304 40.556 399.36 41.02C398.432 41.468 397.248 41.692 395.808 41.692Z" fill="#F5F5F5"/>
<rect x="524.02" width="65" height="65" rx="32.5" fill="#312C13"/>
<path d="M548.932 37.372V35.692L557.524 24.7H560.116L551.596 35.692L550.372 35.308H563.788V37.372H548.932ZM558.268 41.5V37.372L558.34 35.308V31.66H560.596V41.5H558.268Z" fill="#F5F5F5"/>
<rect x="690.02" width="62" height="65" rx="31" fill="#312C13"/>
<path d="M720.596 41.692C719.412 41.692 718.26 41.508 717.14 41.14C716.036 40.772 715.132 40.276 714.428 39.652L715.532 37.756C716.092 38.284 716.82 38.716 717.716 39.052C718.612 39.388 719.564 39.556 720.572 39.556C721.852 39.556 722.836 39.284 723.524 38.74C724.212 38.196 724.556 37.468 724.556 36.556C724.556 35.932 724.404 35.388 724.1 34.924C723.796 34.46 723.268 34.108 722.516 33.868C721.78 33.612 720.764 33.484 719.468 33.484H715.652L716.54 24.7H726.02V26.788H717.428L718.676 25.612L717.98 32.548L716.732 31.396H719.972C721.652 31.396 723.004 31.612 724.028 32.044C725.052 32.476 725.796 33.076 726.26 33.844C726.724 34.596 726.956 35.468 726.956 36.46C726.956 37.42 726.724 38.3 726.26 39.1C725.796 39.884 725.092 40.516 724.148 40.996C723.22 41.46 722.036 41.692 720.596 41.692Z" fill="#F5F5F5"/>
<g clip-path="url(#clip0_53_4857)">
<rect x="59.02" y="9" width="132" height="132" rx="66" fill="white" fill-opacity="0.4"/>
<g clip-path="url(#clip1_53_4857)">
<path d="M118.163 41C117.413 39.7712 117.017 38.3588 117.02 36.919C117.02 32.545 120.602 29 125.02 29C129.438 29 133.02 32.545 133.02 36.919C133.023 38.3588 132.627 39.7712 131.877 41M128.02 46L127.89 46.647C127.75 47.354 127.679 47.707 127.52 47.987C127.275 48.4186 126.878 48.7436 126.407 48.899C126.102 49 125.74 49 125.02 49C124.3 49 123.938 49 123.633 48.9C123.162 48.7444 122.765 48.4189 122.52 47.987C122.361 47.707 122.29 47.354 122.15 46.647L122.02 46M125.02 43V38M120.403 44.098C120.311 43.822 120.265 43.683 120.27 43.571C120.276 43.4552 120.315 43.3435 120.383 43.2494C120.45 43.1554 120.544 43.083 120.652 43.041C120.756 43 120.902 43 121.192 43H128.848C129.139 43 129.284 43 129.388 43.04C129.496 43.0821 129.59 43.1546 129.658 43.2489C129.726 43.3431 129.765 43.455 129.77 43.571C129.775 43.683 129.729 43.821 129.637 44.098C129.467 44.609 129.382 44.865 129.251 45.072C128.977 45.5046 128.548 45.8156 128.051 45.941C127.813 46 127.545 46 127.008 46H123.032C122.495 46 122.226 46 121.989 45.94C121.493 45.8149 121.063 45.5042 120.789 45.072C120.658 44.865 120.573 44.609 120.403 44.098Z" stroke="#F8E894" stroke-width="1.5" stroke-linecap="round" stroke-linejoin="round"/>
</g>
<path d="M108.49 71V61.2H109.89V71H108.49ZM112.824 71V61.2H116.954C117.999 61.2 118.919 61.4053 119.712 61.816C120.515 62.2267 121.135 62.8007 121.574 63.538C122.022 64.2753 122.246 65.1293 122.246 66.1C122.246 67.0707 122.022 67.9247 121.574 68.662C121.135 69.3993 120.515 69.9733 119.712 70.384C118.919 70.7947 117.999 71 116.954 71H112.824ZM114.224 69.782H116.87C117.682 69.782 118.382 69.628 118.97 69.32C119.567 69.012 120.029 68.5827 120.356 68.032C120.683 67.472 120.846 66.828 120.846 66.1C120.846 65.3627 120.683 64.7187 120.356 64.168C120.029 63.6173 119.567 63.188 118.97 62.88C118.382 62.572 117.682 62.418 116.87 62.418H114.224V69.782ZM125.664 65.428H130.704V66.618H125.664V65.428ZM125.79 69.782H131.502V71H124.39V61.2H131.306V62.418H125.79V69.782ZM132.285 71L136.723 61.2H138.109L142.561 71H141.091L137.129 61.984H137.689L133.727 71H132.285ZM134.175 68.55L134.553 67.43H140.069L140.475 68.55H134.175Z" fill="#1A1A1A"/>
<path d="M74.5109 91.06C73.9109 91.06 73.3709 90.924 72.8909 90.652C72.4189 90.38 72.0469 90.004 71.7749 89.524C71.5029 89.036 71.3669 88.476 71.3669 87.844C71.3669 87.204 71.5029 86.644 71.7749 86.164C72.0469 85.684 72.4189 85.312 72.8909 85.048C73.3709 84.776 73.9109 84.64 74.5109 84.64C75.0629 84.64 75.5549 84.764 75.9869 85.012C76.4269 85.26 76.7749 85.624 77.0309 86.104C77.2949 86.576 77.4269 87.156 77.4269 87.844C77.4269 88.524 77.2989 89.104 77.0429 89.584C76.7869 90.064 76.4389 90.432 75.9989 90.688C75.5669 90.936 75.0709 91.06 74.5109 91.06ZM74.5709 90.304C75.0189 90.304 75.4189 90.204 75.7709 90.004C76.1309 89.796 76.4109 89.508 76.6109 89.14C76.8189 88.764 76.9229 88.332 76.9229 87.844C76.9229 87.348 76.8189 86.916 76.6109 86.548C76.4109 86.18 76.1309 85.896 75.7709 85.696C75.4189 85.488 75.0189 85.384 74.5709 85.384C74.1309 85.384 73.7349 85.488 73.3829 85.696C73.0309 85.896 72.7509 86.18 72.5429 86.548C72.3349 86.916 72.2309 87.348 72.2309 87.844C72.2309 88.332 72.3349 88.764 72.5429 89.14C72.7509 89.508 73.0309 89.796 73.3829 90.004C73.7349 90.204 74.1309 90.304 74.5709 90.304ZM76.9469 91V89.104L77.0309 87.832L76.9109 86.56V82.096H77.7629V91H76.9469ZM80.1358 91V84.7H80.9878V91H80.1358ZM80.5678 83.308C80.3918 83.308 80.2438 83.248 80.1238 83.128C80.0038 83.008 79.9438 82.864 79.9438 82.696C79.9438 82.528 80.0038 82.388 80.1238 82.276C80.2438 82.156 80.3918 82.096 80.5678 82.096C80.7438 82.096 80.8918 82.152 81.0118 82.264C81.1318 82.376 81.1918 82.516 81.1918 82.684C81.1918 82.86 81.1318 83.008 81.0118 83.128C80.8998 83.248 80.7518 83.308 80.5678 83.308ZM85.0504 91.06C84.5304 91.06 84.0384 90.988 83.5744 90.844C83.1104 90.692 82.7464 90.504 82.4824 90.28L82.8664 89.608C83.1224 89.8 83.4504 89.968 83.8504 90.112C84.2504 90.248 84.6704 90.316 85.1104 90.316C85.7104 90.316 86.1424 90.224 86.4064 90.04C86.6704 89.848 86.8024 89.596 86.8024 89.284C86.8024 89.052 86.7264 88.872 86.5744 88.744C86.4304 88.608 86.2384 88.508 85.9984 88.444C85.7584 88.372 85.4904 88.312 85.1944 88.264C84.8984 88.216 84.6024 88.16 84.3064 88.096C84.0184 88.032 83.7544 87.94 83.5144 87.82C83.2744 87.692 83.0784 87.52 82.9264 87.304C82.7824 87.088 82.7104 86.8 82.7104 86.44C82.7104 86.096 82.8064 85.788 82.9984 85.516C83.1904 85.244 83.4704 85.032 83.8384 84.88C84.2144 84.72 84.6704 84.64 85.2064 84.64C85.6144 84.64 86.0224 84.696 86.4304 84.808C86.8384 84.912 87.1744 85.052 87.4384 85.228L87.0664 85.912C86.7864 85.72 86.4864 85.584 86.1664 85.504C85.8464 85.416 85.5264 85.372 85.2064 85.372C84.6384 85.372 84.2184 85.472 83.9464 85.672C83.6824 85.864 83.5504 86.112 83.5504 86.416C83.5504 86.656 83.6224 86.844 83.7664 86.98C83.9184 87.116 84.1144 87.224 84.3544 87.304C84.6024 87.376 84.8704 87.436 85.1584 87.484C85.4544 87.532 85.7464 87.592 86.0344 87.664C86.3304 87.728 86.5984 87.82 86.8384 87.94C87.0864 88.052 87.2824 88.216 87.4264 88.432C87.5784 88.64 87.6544 88.916 87.6544 89.26C87.6544 89.628 87.5504 89.948 87.3424 90.22C87.1424 90.484 86.8464 90.692 86.4544 90.844C86.0704 90.988 85.6024 91.06 85.0504 91.06ZM91.8338 91.06C91.2098 91.06 90.6498 90.924 90.1538 90.652C89.6658 90.372 89.2818 89.992 89.0018 89.512C88.7218 89.024 88.5818 88.468 88.5818 87.844C88.5818 87.212 88.7218 86.656 89.0018 86.176C89.2818 85.696 89.6658 85.32 90.1538 85.048C90.6498 84.776 91.2098 84.64 91.8338 84.64C92.3698 84.64 92.8538 84.744 93.2858 84.952C93.7178 85.16 94.0578 85.472 94.3058 85.888L93.6698 86.32C93.4538 86 93.1858 85.764 92.8658 85.612C92.5458 85.46 92.1978 85.384 91.8218 85.384C91.3738 85.384 90.9698 85.488 90.6098 85.696C90.2498 85.896 89.9658 86.18 89.7578 86.548C89.5498 86.916 89.4458 87.348 89.4458 87.844C89.4458 88.34 89.5498 88.772 89.7578 89.14C89.9658 89.508 90.2498 89.796 90.6098 90.004C90.9698 90.204 91.3738 90.304 91.8218 90.304C92.1978 90.304 92.5458 90.228 92.8658 90.076C93.1858 89.924 93.4538 89.692 93.6698 89.38L94.3058 89.812C94.0578 90.22 93.7178 90.532 93.2858 90.748C92.8538 90.956 92.3698 91.06 91.8338 91.06ZM98.442 91.06C97.834 91.06 97.286 90.924 96.798 90.652C96.318 90.372 95.938 89.992 95.658 89.512C95.378 89.024 95.238 88.468 95.238 87.844C95.238 87.212 95.378 86.656 95.658 86.176C95.938 85.696 96.318 85.32 96.798 85.048C97.278 84.776 97.826 84.64 98.442 84.64C99.066 84.64 99.618 84.776 100.098 85.048C100.586 85.32 100.966 85.696 101.238 86.176C101.518 86.656 101.658 87.212 101.658 87.844C101.658 88.468 101.518 89.024 101.238 89.512C100.966 89.992 100.586 90.372 100.098 90.652C99.61 90.924 99.058 91.06 98.442 91.06ZM98.442 90.304C98.898 90.304 99.302 90.204 99.654 90.004C100.006 89.796 100.282 89.508 100.482 89.14C100.69 88.764 100.794 88.332 100.794 87.844C100.794 87.348 100.69 86.916 100.482 86.548C100.282 86.18 100.006 85.896 99.654 85.696C99.302 85.488 98.902 85.384 98.454 85.384C98.006 85.384 97.606 85.488 97.254 85.696C96.902 85.896 96.622 86.18 96.414 86.548C96.206 86.916 96.102 87.348 96.102 87.844C96.102 88.332 96.206 88.764 96.414 89.14C96.622 89.508 96.902 89.796 97.254 90.004C97.606 90.204 98.002 90.304 98.442 90.304ZM104.842 91L102.046 84.7H102.934L105.502 90.544H105.082L107.686 84.7H108.526L105.718 91H104.842ZM112.226 91.06C111.57 91.06 110.994 90.924 110.498 90.652C110.002 90.372 109.614 89.992 109.334 89.512C109.054 89.024 108.914 88.468 108.914 87.844C108.914 87.22 109.046 86.668 109.31 86.188C109.582 85.708 109.95 85.332 110.414 85.06C110.886 84.78 111.414 84.64 111.998 84.64C112.59 84.64 113.114 84.776 113.57 85.048C114.034 85.312 114.398 85.688 114.662 86.176C114.926 86.656 115.058 87.212 115.058 87.844C115.058 87.884 115.054 87.928 115.046 87.976C115.046 88.016 115.046 88.06 115.046 88.108H109.562V87.472H114.59L114.254 87.724C114.254 87.268 114.154 86.864 113.954 86.512C113.762 86.152 113.498 85.872 113.162 85.672C112.826 85.472 112.438 85.372 111.998 85.372C111.566 85.372 111.178 85.472 110.834 85.672C110.49 85.872 110.222 86.152 110.03 86.512C109.838 86.872 109.742 87.284 109.742 87.748V87.88C109.742 88.36 109.846 88.784 110.054 89.152C110.27 89.512 110.566 89.796 110.942 90.004C111.326 90.204 111.762 90.304 112.25 90.304C112.634 90.304 112.99 90.236 113.318 90.1C113.654 89.964 113.942 89.756 114.182 89.476L114.662 90.028C114.382 90.364 114.03 90.62 113.606 90.796C113.19 90.972 112.73 91.06 112.226 91.06ZM116.792 91V84.7H117.608V86.416L117.524 86.116C117.7 85.636 117.996 85.272 118.412 85.024C118.828 84.768 119.344 84.64 119.96 84.64V85.468C119.928 85.468 119.896 85.468 119.864 85.468C119.832 85.46 119.8 85.456 119.768 85.456C119.104 85.456 118.584 85.66 118.208 86.068C117.832 86.468 117.644 87.04 117.644 87.784V91H116.792ZM126.033 91L123.657 84.7H124.473L126.633 90.544H126.261L128.481 84.7H129.213L131.409 90.544H131.037L133.233 84.7H134.013L131.625 91H130.821L128.709 85.504H128.961L126.837 91H126.033ZM138.512 84.64C139.024 84.64 139.472 84.74 139.856 84.94C140.248 85.132 140.552 85.428 140.768 85.828C140.992 86.228 141.104 86.732 141.104 87.34V91H140.252V87.424C140.252 86.76 140.084 86.26 139.748 85.924C139.42 85.58 138.956 85.408 138.356 85.408C137.908 85.408 137.516 85.5 137.18 85.684C136.852 85.86 136.596 86.12 136.412 86.464C136.236 86.8 136.148 87.208 136.148 87.688V91H135.296V82.096H136.148V86.428L135.98 86.104C136.18 85.648 136.5 85.292 136.94 85.036C137.38 84.772 137.904 84.64 138.512 84.64ZM147.353 91V89.608L147.317 89.38V87.052C147.317 86.516 147.165 86.104 146.861 85.816C146.565 85.528 146.121 85.384 145.529 85.384C145.121 85.384 144.733 85.452 144.365 85.588C143.997 85.724 143.685 85.904 143.429 86.128L143.045 85.492C143.365 85.22 143.749 85.012 144.197 84.868C144.645 84.716 145.117 84.64 145.613 84.64C146.429 84.64 147.057 84.844 147.497 85.252C147.945 85.652 148.169 86.264 148.169 87.088V91H147.353ZM145.181 91.06C144.709 91.06 144.297 90.984 143.945 90.832C143.601 90.672 143.337 90.456 143.153 90.184C142.969 89.904 142.877 89.584 142.877 89.224C142.877 88.896 142.953 88.6 143.105 88.336C143.265 88.064 143.521 87.848 143.873 87.688C144.233 87.52 144.713 87.436 145.313 87.436H147.485V88.072H145.337C144.729 88.072 144.305 88.18 144.065 88.396C143.833 88.612 143.717 88.88 143.717 89.2C143.717 89.56 143.857 89.848 144.137 90.064C144.417 90.28 144.809 90.388 145.313 90.388C145.793 90.388 146.205 90.28 146.549 90.064C146.901 89.84 147.157 89.52 147.317 89.104L147.509 89.692C147.349 90.108 147.069 90.44 146.669 90.688C146.277 90.936 145.781 91.06 145.181 91.06ZM152.475 91.06C151.883 91.06 151.427 90.9 151.107 90.58C150.787 90.26 150.627 89.808 150.627 89.224V83.308H151.479V89.176C151.479 89.544 151.571 89.828 151.755 90.028C151.947 90.228 152.219 90.328 152.571 90.328C152.947 90.328 153.259 90.22 153.507 90.004L153.807 90.616C153.639 90.768 153.435 90.88 153.195 90.952C152.963 91.024 152.723 91.06 152.475 91.06ZM149.499 85.408V84.7H153.399V85.408H149.499ZM158.547 93.388C158.251 93.388 157.967 93.34 157.695 93.244C157.431 93.148 157.203 93.004 157.011 92.812L157.407 92.176C157.567 92.328 157.739 92.444 157.923 92.524C158.115 92.612 158.327 92.656 158.559 92.656C158.839 92.656 159.079 92.576 159.279 92.416C159.487 92.264 159.683 91.992 159.867 91.6L160.275 90.676L160.371 90.544L162.963 84.7H163.803L160.647 91.756C160.471 92.164 160.275 92.488 160.059 92.728C159.851 92.968 159.623 93.136 159.375 93.232C159.127 93.336 158.851 93.388 158.547 93.388ZM160.227 91.18L157.323 84.7H158.211L160.779 90.484L160.227 91.18ZM167.395 91.06C166.787 91.06 166.239 90.924 165.751 90.652C165.271 90.372 164.891 89.992 164.611 89.512C164.331 89.024 164.191 88.468 164.191 87.844C164.191 87.212 164.331 86.656 164.611 86.176C164.891 85.696 165.271 85.32 165.751 85.048C166.231 84.776 166.779 84.64 167.395 84.64C168.019 84.64 168.571 84.776 169.051 85.048C169.539 85.32 169.919 85.696 170.191 86.176C170.471 86.656 170.611 87.212 170.611 87.844C170.611 88.468 170.471 89.024 170.191 89.512C169.919 89.992 169.539 90.372 169.051 90.652C168.563 90.924 168.011 91.06 167.395 91.06ZM167.395 90.304C167.851 90.304 168.255 90.204 168.607 90.004C168.959 89.796 169.235 89.508 169.435 89.14C169.643 88.764 169.747 88.332 169.747 87.844C169.747 87.348 169.643 86.916 169.435 86.548C169.235 86.18 168.959 85.896 168.607 85.696C168.255 85.488 167.855 85.384 167.407 85.384C166.959 85.384 166.559 85.488 166.207 85.696C165.855 85.896 165.575 86.18 165.367 86.548C165.159 86.916 165.055 87.348 165.055 87.844C165.055 88.332 165.159 88.764 165.367 89.14C165.575 89.508 165.855 89.796 166.207 90.004C166.559 90.204 166.955 90.304 167.395 90.304ZM174.955 91.06C174.419 91.06 173.951 90.96 173.551 90.76C173.151 90.56 172.839 90.26 172.615 89.86C172.399 89.46 172.291 88.96 172.291 88.36V84.7H173.143V88.264C173.143 88.936 173.307 89.444 173.635 89.788C173.971 90.124 174.439 90.292 175.039 90.292C175.479 90.292 175.859 90.204 176.179 90.028C176.507 89.844 176.755 89.58 176.923 89.236C177.099 88.892 177.187 88.48 177.187 88V84.7H178.039V91H177.223V89.272L177.355 89.584C177.155 90.048 176.843 90.412 176.419 90.676C176.003 90.932 175.515 91.06 174.955 91.06ZM112.281 110L109.905 103.7H110.721L112.881 109.544H112.509L114.729 103.7H115.461L117.657 109.544H117.285L119.481 103.7H120.261L117.873 110H117.069L114.957 104.504H115.209L113.085 110H112.281ZM125.304 110V108.608L125.268 108.38V106.052C125.268 105.516 125.116 105.104 124.812 104.816C124.516 104.528 124.072 104.384 123.48 104.384C123.072 104.384 122.684 104.452 122.316 104.588C121.948 104.724 121.636 104.904 121.38 105.128L120.996 104.492C121.316 104.22 121.7 104.012 122.148 103.868C122.596 103.716 123.068 103.64 123.564 103.64C124.38 103.64 125.008 103.844 125.448 104.252C125.896 104.652 126.12 105.264 126.12 106.088V110H125.304ZM123.132 110.06C122.66 110.06 122.248 109.984 121.896 109.832C121.552 109.672 121.288 109.456 121.104 109.184C120.92 108.904 120.828 108.584 120.828 108.224C120.828 107.896 120.904 107.6 121.056 107.336C121.216 107.064 121.472 106.848 121.824 106.688C122.184 106.52 122.664 106.436 123.264 106.436H125.436V107.072H123.288C122.68 107.072 122.256 107.18 122.016 107.396C121.784 107.612 121.668 107.88 121.668 108.2C121.668 108.56 121.808 108.848 122.088 109.064C122.368 109.28 122.76 109.388 123.264 109.388C123.744 109.388 124.156 109.28 124.5 109.064C124.852 108.84 125.108 108.52 125.268 108.104L125.46 108.692C125.3 109.108 125.02 109.44 124.62 109.688C124.228 109.936 123.732 110.06 123.132 110.06ZM131.651 103.64C132.163 103.64 132.611 103.74 132.995 103.94C133.387 104.132 133.691 104.428 133.907 104.828C134.131 105.228 134.243 105.732 134.243 106.34V110H133.391V106.424C133.391 105.76 133.223 105.26 132.887 104.924C132.559 104.58 132.095 104.408 131.495 104.408C131.047 104.408 130.655 104.5 130.319 104.684C129.991 104.86 129.735 105.12 129.551 105.464C129.375 105.8 129.287 106.208 129.287 106.688V110H128.435V103.7H129.251V105.428L129.119 105.104C129.319 104.648 129.639 104.292 130.079 104.036C130.519 103.772 131.043 103.64 131.651 103.64ZM138.536 110.06C137.944 110.06 137.488 109.9 137.168 109.58C136.848 109.26 136.688 108.808 136.688 108.224V102.308H137.54V108.176C137.54 108.544 137.632 108.828 137.816 109.028C138.008 109.228 138.28 109.328 138.632 109.328C139.008 109.328 139.32 109.22 139.568 109.004L139.868 109.616C139.7 109.768 139.496 109.88 139.256 109.952C139.024 110.024 138.784 110.06 138.536 110.06ZM135.56 104.408V103.7H139.46V104.408H135.56Z" fill="#6C6C6C"/>
</g>
<rect x="59.52" y="9.5" width="131" height="131" rx="65.5" stroke="#EEEFF2"/>
<g clip-path="url(#clip2_53_4857)">
<rect x="223.02" y="9" width="132" height="132" rx="66" fill="white" fill-opacity="0.4"/>
<path d="M292.449 27.8574V38.1431L298.603 45.9774C298.903 46.3568 299.089 46.813 299.142 47.2937C299.194 47.7743 299.11 48.26 298.898 48.695C298.687 49.1299 298.358 49.4965 297.948 49.7526C297.538 50.0088 297.064 50.1441 296.58 50.1431H281.46C280.977 50.1441 280.503 50.0088 280.092 49.7526C279.682 49.4965 279.353 49.1299 279.142 48.695C278.93 48.26 278.846 47.7743 278.898 47.2937C278.951 46.813 279.137 46.3568 279.437 45.9774L285.591 38.1431V27.8574M283.02 27.8574H295.02" stroke="#F8E894" stroke-width="1.71429" stroke-linecap="round" stroke-linejoin="round"/>
<path d="M247.75 65.834H252.804V67.038H247.75V65.834ZM247.89 71H246.49V61.2H253.406V62.418H247.89V71ZM258.126 71.084C257.38 71.084 256.717 70.9207 256.138 70.594C255.56 70.2673 255.102 69.8193 254.766 69.25C254.43 68.6713 254.262 68.018 254.262 67.29C254.262 66.5527 254.43 65.8993 254.766 65.33C255.102 64.7607 255.56 64.3173 256.138 64C256.717 63.6733 257.38 63.51 258.126 63.51C258.864 63.51 259.522 63.6733 260.1 64C260.688 64.3173 261.146 64.7607 261.472 65.33C261.808 65.89 261.976 66.5433 261.976 67.29C261.976 68.0273 261.808 68.6807 261.472 69.25C261.146 69.8193 260.688 70.2673 260.1 70.594C259.522 70.9207 258.864 71.084 258.126 71.084ZM258.126 69.908C258.602 69.908 259.027 69.8007 259.4 69.586C259.783 69.3713 260.082 69.068 260.296 68.676C260.511 68.2747 260.618 67.8127 260.618 67.29C260.618 66.758 260.511 66.3007 260.296 65.918C260.082 65.526 259.783 65.2227 259.4 65.008C259.027 64.7933 258.602 64.686 258.126 64.686C257.65 64.686 257.226 64.7933 256.852 65.008C256.479 65.2227 256.18 65.526 255.956 65.918C255.732 66.3007 255.62 66.758 255.62 67.29C255.62 67.8127 255.732 68.2747 255.956 68.676C256.18 69.068 256.479 69.3713 256.852 69.586C257.226 69.8007 257.65 69.908 258.126 69.908ZM263.835 71V63.58H265.123V65.596L264.997 65.092C265.202 64.5787 265.548 64.1867 266.033 63.916C266.518 63.6453 267.116 63.51 267.825 63.51V64.812C267.769 64.8027 267.713 64.798 267.657 64.798C267.61 64.798 267.564 64.798 267.517 64.798C266.798 64.798 266.229 65.0127 265.809 65.442C265.389 65.8713 265.179 66.492 265.179 67.304V71H263.835ZM278.764 63.51C279.361 63.51 279.888 63.6267 280.346 63.86C280.803 64.0933 281.158 64.448 281.41 64.924C281.671 65.4 281.802 66.002 281.802 66.73V71H280.458V66.884C280.458 66.1653 280.29 65.624 279.954 65.26C279.618 64.896 279.146 64.714 278.54 64.714C278.092 64.714 277.7 64.8073 277.364 64.994C277.028 65.1807 276.766 65.456 276.58 65.82C276.402 66.184 276.314 66.6367 276.314 67.178V71H274.97V66.884C274.97 66.1653 274.802 65.624 274.466 65.26C274.139 64.896 273.668 64.714 273.052 64.714C272.613 64.714 272.226 64.8073 271.89 64.994C271.554 65.1807 271.292 65.456 271.106 65.82C270.919 66.184 270.826 66.6367 270.826 67.178V71H269.482V63.58H270.77V65.554L270.56 65.05C270.793 64.5647 271.152 64.1867 271.638 63.916C272.123 63.6453 272.688 63.51 273.332 63.51C274.041 63.51 274.652 63.6873 275.166 64.042C275.679 64.3873 276.015 64.9147 276.174 65.624L275.628 65.4C275.852 64.8307 276.244 64.3733 276.804 64.028C277.364 63.6827 278.017 63.51 278.764 63.51ZM287.396 71.084C286.762 71.084 286.202 70.9673 285.716 70.734C285.24 70.5007 284.867 70.146 284.596 69.67C284.335 69.1847 284.204 68.578 284.204 67.85V63.58H285.548V67.696C285.548 68.424 285.721 68.97 286.066 69.334C286.421 69.698 286.916 69.88 287.55 69.88C288.017 69.88 288.423 69.7867 288.768 69.6C289.114 69.404 289.38 69.124 289.566 68.76C289.753 68.3867 289.846 67.9387 289.846 67.416V63.58H291.19V71H289.916V68.998L290.126 69.53C289.884 70.0247 289.52 70.4073 289.034 70.678C288.549 70.9487 288.003 71.084 287.396 71.084ZM293.749 71V60.612H295.093V71H293.749ZM302.265 71V69.432L302.195 69.138V66.464C302.195 65.8947 302.027 65.456 301.691 65.148C301.365 64.8307 300.87 64.672 300.207 64.672C299.769 64.672 299.339 64.7467 298.919 64.896C298.499 65.036 298.145 65.2273 297.855 65.47L297.295 64.462C297.678 64.154 298.135 63.9207 298.667 63.762C299.209 63.594 299.773 63.51 300.361 63.51C301.379 63.51 302.163 63.7573 302.713 64.252C303.264 64.7467 303.539 65.5027 303.539 66.52V71H302.265ZM299.829 71.084C299.279 71.084 298.793 70.9907 298.373 70.804C297.963 70.6173 297.645 70.3607 297.421 70.034C297.197 69.698 297.085 69.32 297.085 68.9C297.085 68.4987 297.179 68.1347 297.365 67.808C297.561 67.4813 297.874 67.22 298.303 67.024C298.742 66.828 299.33 66.73 300.067 66.73H302.419V67.696H300.123C299.451 67.696 298.999 67.808 298.765 68.032C298.532 68.256 298.415 68.5267 298.415 68.844C298.415 69.208 298.56 69.502 298.849 69.726C299.139 69.9407 299.54 70.048 300.053 70.048C300.557 70.048 300.996 69.936 301.369 69.712C301.752 69.488 302.027 69.1613 302.195 68.732L302.461 69.656C302.284 70.0947 301.971 70.4447 301.523 70.706C301.075 70.958 300.511 71.084 299.829 71.084ZM308.574 71.084C307.828 71.084 307.249 70.8833 306.838 70.482C306.428 70.0807 306.222 69.5067 306.222 68.76V61.956H307.566V68.704C307.566 69.1053 307.664 69.4133 307.86 69.628C308.066 69.8427 308.355 69.95 308.728 69.95C309.148 69.95 309.498 69.8333 309.778 69.6L310.198 70.566C309.993 70.7433 309.746 70.874 309.456 70.958C309.176 71.042 308.882 71.084 308.574 71.084ZM304.962 64.686V63.58H309.694V64.686H304.962ZM311.823 71V63.58H313.167V71H311.823ZM312.495 62.152C312.234 62.152 312.015 62.068 311.837 61.9C311.669 61.732 311.585 61.5267 311.585 61.284C311.585 61.032 311.669 60.822 311.837 60.654C312.015 60.486 312.234 60.402 312.495 60.402C312.757 60.402 312.971 60.486 313.139 60.654C313.317 60.8127 313.405 61.0133 313.405 61.256C313.405 61.508 313.321 61.7227 313.153 61.9C312.985 62.068 312.766 62.152 312.495 62.152ZM318.911 71.084C318.165 71.084 317.502 70.9207 316.923 70.594C316.345 70.2673 315.887 69.8193 315.551 69.25C315.215 68.6713 315.047 68.018 315.047 67.29C315.047 66.5527 315.215 65.8993 315.551 65.33C315.887 64.7607 316.345 64.3173 316.923 64C317.502 63.6733 318.165 63.51 318.911 63.51C319.649 63.51 320.307 63.6733 320.885 64C321.473 64.3173 321.931 64.7607 322.257 65.33C322.593 65.89 322.761 66.5433 322.761 67.29C322.761 68.0273 322.593 68.6807 322.257 69.25C321.931 69.8193 321.473 70.2673 320.885 70.594C320.307 70.9207 319.649 71.084 318.911 71.084ZM318.911 69.908C319.387 69.908 319.812 69.8007 320.185 69.586C320.568 69.3713 320.867 69.068 321.081 68.676C321.296 68.2747 321.403 67.8127 321.403 67.29C321.403 66.758 321.296 66.3007 321.081 65.918C320.867 65.526 320.568 65.2227 320.185 65.008C319.812 64.7933 319.387 64.686 318.911 64.686C318.435 64.686 318.011 64.7933 317.637 65.008C317.264 65.2227 316.965 65.526 316.741 65.918C316.517 66.3007 316.405 66.758 316.405 67.29C316.405 67.8127 316.517 68.2747 316.741 68.676C316.965 69.068 317.264 69.3713 317.637 69.586C318.011 69.8007 318.435 69.908 318.911 69.908ZM328.582 63.51C329.189 63.51 329.721 63.6267 330.178 63.86C330.645 64.0933 331.009 64.448 331.27 64.924C331.532 65.4 331.662 66.002 331.662 66.73V71H330.318V66.884C330.318 66.1653 330.141 65.624 329.786 65.26C329.441 64.896 328.951 64.714 328.316 64.714C327.84 64.714 327.425 64.8073 327.07 64.994C326.716 65.1807 326.44 65.456 326.244 65.82C326.058 66.184 325.964 66.6367 325.964 67.178V71H324.62V63.58H325.908V65.582L325.698 65.05C325.941 64.5647 326.314 64.1867 326.818 63.916C327.322 63.6453 327.91 63.51 328.582 63.51Z" fill="#1A1A1A"/>
<path d="M236.638 91.072C235.998 91.072 235.406 90.968 234.862 90.76C234.326 90.544 233.858 90.244 233.458 89.86C233.066 89.476 232.758 89.024 232.534 88.504C232.318 87.984 232.21 87.416 232.21 86.8C232.21 86.184 232.318 85.616 232.534 85.096C232.758 84.576 233.07 84.124 233.47 83.74C233.87 83.356 234.338 83.06 234.874 82.852C235.418 82.636 236.01 82.528 236.65 82.528C237.29 82.528 237.874 82.628 238.402 82.828C238.938 83.028 239.394 83.332 239.77 83.74L239.218 84.304C238.866 83.952 238.478 83.7 238.054 83.548C237.63 83.396 237.174 83.32 236.686 83.32C236.166 83.32 235.686 83.408 235.246 83.584C234.814 83.752 234.434 83.996 234.106 84.316C233.786 84.628 233.534 84.996 233.35 85.42C233.174 85.836 233.086 86.296 233.086 86.8C233.086 87.296 233.174 87.756 233.35 88.18C233.534 88.604 233.786 88.976 234.106 89.296C234.434 89.608 234.814 89.852 235.246 90.028C235.686 90.196 236.162 90.28 236.674 90.28C237.154 90.28 237.606 90.208 238.03 90.064C238.462 89.92 238.858 89.676 239.218 89.332L239.722 90.004C239.322 90.356 238.854 90.624 238.318 90.808C237.782 90.984 237.222 91.072 236.638 91.072ZM238.87 89.896V86.8H239.722V90.004L238.87 89.896ZM246.004 91V89.608L245.968 89.38V87.052C245.968 86.516 245.816 86.104 245.512 85.816C245.216 85.528 244.772 85.384 244.18 85.384C243.772 85.384 243.384 85.452 243.016 85.588C242.648 85.724 242.336 85.904 242.08 86.128L241.696 85.492C242.016 85.22 242.4 85.012 242.848 84.868C243.296 84.716 243.768 84.64 244.264 84.64C245.08 84.64 245.708 84.844 246.148 85.252C246.596 85.652 246.82 86.264 246.82 87.088V91H246.004ZM243.832 91.06C243.36 91.06 242.948 90.984 242.596 90.832C242.252 90.672 241.988 90.456 241.804 90.184C241.62 89.904 241.528 89.584 241.528 89.224C241.528 88.896 241.604 88.6 241.756 88.336C241.916 88.064 242.172 87.848 242.524 87.688C242.884 87.52 243.364 87.436 243.964 87.436H246.136V88.072H243.988C243.38 88.072 242.956 88.18 242.716 88.396C242.484 88.612 242.368 88.88 242.368 89.2C242.368 89.56 242.508 89.848 242.788 90.064C243.068 90.28 243.46 90.388 243.964 90.388C244.444 90.388 244.856 90.28 245.2 90.064C245.552 89.84 245.808 89.52 245.968 89.104L246.16 89.692C246 90.108 245.72 90.44 245.32 90.688C244.928 90.936 244.432 91.06 243.832 91.06ZM251.126 91.06C250.534 91.06 250.078 90.9 249.758 90.58C249.438 90.26 249.278 89.808 249.278 89.224V83.308H250.13V89.176C250.13 89.544 250.222 89.828 250.406 90.028C250.598 90.228 250.87 90.328 251.222 90.328C251.598 90.328 251.91 90.22 252.158 90.004L252.458 90.616C252.29 90.768 252.086 90.88 251.846 90.952C251.614 91.024 251.374 91.06 251.126 91.06ZM248.15 85.408V84.7H252.05V85.408H248.15ZM257.225 84.64C257.737 84.64 258.185 84.74 258.569 84.94C258.961 85.132 259.265 85.428 259.481 85.828C259.705 86.228 259.817 86.732 259.817 87.34V91H258.965V87.424C258.965 86.76 258.797 86.26 258.461 85.924C258.133 85.58 257.669 85.408 257.069 85.408C256.621 85.408 256.229 85.5 255.893 85.684C255.565 85.86 255.309 86.12 255.125 86.464C254.949 86.8 254.861 87.208 254.861 87.688V91H254.009V82.096H254.861V86.428L254.693 86.104C254.893 85.648 255.213 85.292 255.653 85.036C256.093 84.772 256.617 84.64 257.225 84.64ZM264.794 91.06C264.138 91.06 263.562 90.924 263.066 90.652C262.57 90.372 262.182 89.992 261.902 89.512C261.622 89.024 261.482 88.468 261.482 87.844C261.482 87.22 261.614 86.668 261.878 86.188C262.15 85.708 262.518 85.332 262.982 85.06C263.454 84.78 263.982 84.64 264.566 84.64C265.158 84.64 265.682 84.776 266.138 85.048C266.602 85.312 266.966 85.688 267.23 86.176C267.494 86.656 267.626 87.212 267.626 87.844C267.626 87.884 267.622 87.928 267.614 87.976C267.614 88.016 267.614 88.06 267.614 88.108H262.13V87.472H267.158L266.822 87.724C266.822 87.268 266.722 86.864 266.522 86.512C266.33 86.152 266.066 85.872 265.73 85.672C265.394 85.472 265.006 85.372 264.566 85.372C264.134 85.372 263.746 85.472 263.402 85.672C263.058 85.872 262.79 86.152 262.598 86.512C262.406 86.872 262.31 87.284 262.31 87.748V87.88C262.31 88.36 262.414 88.784 262.622 89.152C262.838 89.512 263.134 89.796 263.51 90.004C263.894 90.204 264.33 90.304 264.818 90.304C265.202 90.304 265.558 90.236 265.886 90.1C266.222 89.964 266.51 89.756 266.75 89.476L267.23 90.028C266.95 90.364 266.598 90.62 266.174 90.796C265.758 90.972 265.298 91.06 264.794 91.06ZM269.36 91V84.7H270.176V86.416L270.092 86.116C270.268 85.636 270.564 85.272 270.98 85.024C271.396 84.768 271.912 84.64 272.528 84.64V85.468C272.496 85.468 272.464 85.468 272.432 85.468C272.4 85.46 272.368 85.456 272.336 85.456C271.672 85.456 271.152 85.66 270.776 86.068C270.4 86.468 270.212 87.04 270.212 87.784V91H269.36ZM277.365 93.388C277.069 93.388 276.785 93.34 276.513 93.244C276.249 93.148 276.021 93.004 275.829 92.812L276.225 92.176C276.385 92.328 276.557 92.444 276.741 92.524C276.933 92.612 277.145 92.656 277.377 92.656C277.657 92.656 277.897 92.576 278.097 92.416C278.305 92.264 278.501 91.992 278.685 91.6L279.093 90.676L279.189 90.544L281.781 84.7H282.621L279.465 91.756C279.289 92.164 279.093 92.488 278.877 92.728C278.669 92.968 278.441 93.136 278.193 93.232C277.945 93.336 277.669 93.388 277.365 93.388ZM279.045 91.18L276.141 84.7H277.029L279.597 90.484L279.045 91.18ZM286.214 91.06C285.606 91.06 285.058 90.924 284.57 90.652C284.09 90.372 283.71 89.992 283.43 89.512C283.15 89.024 283.01 88.468 283.01 87.844C283.01 87.212 283.15 86.656 283.43 86.176C283.71 85.696 284.09 85.32 284.57 85.048C285.05 84.776 285.598 84.64 286.214 84.64C286.838 84.64 287.39 84.776 287.87 85.048C288.358 85.32 288.738 85.696 289.01 86.176C289.29 86.656 289.43 87.212 289.43 87.844C289.43 88.468 289.29 89.024 289.01 89.512C288.738 89.992 288.358 90.372 287.87 90.652C287.382 90.924 286.83 91.06 286.214 91.06ZM286.214 90.304C286.67 90.304 287.074 90.204 287.426 90.004C287.778 89.796 288.054 89.508 288.254 89.14C288.462 88.764 288.566 88.332 288.566 87.844C288.566 87.348 288.462 86.916 288.254 86.548C288.054 86.18 287.778 85.896 287.426 85.696C287.074 85.488 286.674 85.384 286.226 85.384C285.778 85.384 285.378 85.488 285.026 85.696C284.674 85.896 284.394 86.18 284.186 86.548C283.978 86.916 283.874 87.348 283.874 87.844C283.874 88.332 283.978 88.764 284.186 89.14C284.394 89.508 284.674 89.796 285.026 90.004C285.378 90.204 285.774 90.304 286.214 90.304ZM293.773 91.06C293.237 91.06 292.769 90.96 292.369 90.76C291.969 90.56 291.657 90.26 291.433 89.86C291.217 89.46 291.109 88.96 291.109 88.36V84.7H291.961V88.264C291.961 88.936 292.125 89.444 292.453 89.788C292.789 90.124 293.257 90.292 293.857 90.292C294.297 90.292 294.677 90.204 294.997 90.028C295.325 89.844 295.573 89.58 295.741 89.236C295.917 88.892 296.005 88.48 296.005 88V84.7H296.857V91H296.041V89.272L296.173 89.584C295.973 90.048 295.661 90.412 295.237 90.676C294.821 90.932 294.333 91.06 293.773 91.06ZM299.231 91V84.7H300.047V86.416L299.963 86.116C300.139 85.636 300.435 85.272 300.851 85.024C301.267 84.768 301.783 84.64 302.399 84.64V85.468C302.367 85.468 302.335 85.468 302.303 85.468C302.271 85.46 302.239 85.456 302.207 85.456C301.543 85.456 301.023 85.66 300.647 86.068C300.271 86.468 300.083 87.04 300.083 87.784V91H299.231ZM309.876 93.388C309.3 93.388 308.748 93.304 308.22 93.136C307.692 92.968 307.264 92.728 306.936 92.416L307.368 91.768C307.664 92.032 308.028 92.24 308.46 92.392C308.9 92.552 309.364 92.632 309.852 92.632C310.652 92.632 311.24 92.444 311.616 92.068C311.992 91.7 312.18 91.124 312.18 90.34V88.768L312.3 87.688L312.216 86.608V84.7H313.032V90.232C313.032 91.32 312.764 92.116 312.228 92.62C311.7 93.132 310.916 93.388 309.876 93.388ZM309.72 90.76C309.12 90.76 308.58 90.632 308.1 90.376C307.62 90.112 307.24 89.748 306.96 89.284C306.688 88.82 306.552 88.288 306.552 87.688C306.552 87.088 306.688 86.56 306.96 86.104C307.24 85.64 307.62 85.28 308.1 85.024C308.58 84.768 309.12 84.64 309.72 84.64C310.28 84.64 310.784 84.756 311.232 84.988C311.68 85.22 312.036 85.564 312.3 86.02C312.564 86.476 312.696 87.032 312.696 87.688C312.696 88.344 312.564 88.9 312.3 89.356C312.036 89.812 311.68 90.16 311.232 90.4C310.784 90.64 310.28 90.76 309.72 90.76ZM309.804 90.004C310.268 90.004 310.68 89.908 311.04 89.716C311.4 89.516 311.684 89.244 311.892 88.9C312.1 88.548 312.204 88.144 312.204 87.688C312.204 87.232 312.1 86.832 311.892 86.488C311.684 86.144 311.4 85.876 311.04 85.684C310.68 85.484 310.268 85.384 309.804 85.384C309.348 85.384 308.936 85.484 308.568 85.684C308.208 85.876 307.924 86.144 307.716 86.488C307.516 86.832 307.416 87.232 307.416 87.688C307.416 88.144 307.516 88.548 307.716 88.9C307.924 89.244 308.208 89.516 308.568 89.716C308.936 89.908 309.348 90.004 309.804 90.004ZM317.971 91.06C317.363 91.06 316.815 90.924 316.327 90.652C315.847 90.372 315.467 89.992 315.187 89.512C314.907 89.024 314.767 88.468 314.767 87.844C314.767 87.212 314.907 86.656 315.187 86.176C315.467 85.696 315.847 85.32 316.327 85.048C316.807 84.776 317.355 84.64 317.971 84.64C318.595 84.64 319.147 84.776 319.627 85.048C320.115 85.32 320.495 85.696 320.767 86.176C321.047 86.656 321.187 87.212 321.187 87.844C321.187 88.468 321.047 89.024 320.767 89.512C320.495 89.992 320.115 90.372 319.627 90.652C319.139 90.924 318.587 91.06 317.971 91.06ZM317.971 90.304C318.427 90.304 318.831 90.204 319.183 90.004C319.535 89.796 319.811 89.508 320.011 89.14C320.219 88.764 320.323 88.332 320.323 87.844C320.323 87.348 320.219 86.916 320.011 86.548C319.811 86.18 319.535 85.896 319.183 85.696C318.831 85.488 318.431 85.384 317.983 85.384C317.535 85.384 317.135 85.488 316.783 85.696C316.431 85.896 316.151 86.18 315.943 86.548C315.735 86.916 315.631 87.348 315.631 87.844C315.631 88.332 315.735 88.764 315.943 89.14C316.151 89.508 316.431 89.796 316.783 90.004C317.135 90.204 317.531 90.304 317.971 90.304ZM324.919 91.06C324.327 91.06 323.871 90.9 323.551 90.58C323.231 90.26 323.071 89.808 323.071 89.224V83.308H323.923V89.176C323.923 89.544 324.015 89.828 324.199 90.028C324.391 90.228 324.663 90.328 325.015 90.328C325.391 90.328 325.703 90.22 325.951 90.004L326.251 90.616C326.083 90.768 325.879 90.88 325.639 90.952C325.407 91.024 325.167 91.06 324.919 91.06ZM321.943 85.408V84.7H325.843V85.408H321.943ZM329.63 91.06C329.038 91.06 328.582 90.9 328.262 90.58C327.942 90.26 327.782 89.808 327.782 89.224V83.308H328.634V89.176C328.634 89.544 328.726 89.828 328.91 90.028C329.102 90.228 329.374 90.328 329.726 90.328C330.102 90.328 330.414 90.22 330.662 90.004L330.962 90.616C330.794 90.768 330.59 90.88 330.35 90.952C330.118 91.024 329.878 91.06 329.63 91.06ZM326.654 85.408V84.7H330.554V85.408H326.654ZM334.966 91.06C334.31 91.06 333.734 90.924 333.238 90.652C332.742 90.372 332.354 89.992 332.074 89.512C331.794 89.024 331.654 88.468 331.654 87.844C331.654 87.22 331.786 86.668 332.05 86.188C332.322 85.708 332.69 85.332 333.154 85.06C333.626 84.78 334.154 84.64 334.738 84.64C335.33 84.64 335.854 84.776 336.31 85.048C336.774 85.312 337.138 85.688 337.402 86.176C337.666 86.656 337.798 87.212 337.798 87.844C337.798 87.884 337.794 87.928 337.786 87.976C337.786 88.016 337.786 88.06 337.786 88.108H332.302V87.472H337.33L336.994 87.724C336.994 87.268 336.894 86.864 336.694 86.512C336.502 86.152 336.238 85.872 335.902 85.672C335.566 85.472 335.178 85.372 334.738 85.372C334.306 85.372 333.918 85.472 333.574 85.672C333.23 85.872 332.962 86.152 332.77 86.512C332.578 86.872 332.482 87.284 332.482 87.748V87.88C332.482 88.36 332.586 88.784 332.794 89.152C333.01 89.512 333.306 89.796 333.682 90.004C334.066 90.204 334.502 90.304 334.99 90.304C335.374 90.304 335.73 90.236 336.058 90.1C336.394 89.964 336.682 89.756 336.922 89.476L337.402 90.028C337.122 90.364 336.77 90.62 336.346 90.796C335.93 90.972 335.47 91.06 334.966 91.06ZM342.748 84.64C343.26 84.64 343.708 84.74 344.092 84.94C344.484 85.132 344.788 85.428 345.004 85.828C345.228 86.228 345.34 86.732 345.34 87.34V91H344.488V87.424C344.488 86.76 344.32 86.26 343.984 85.924C343.656 85.58 343.192 85.408 342.592 85.408C342.144 85.408 341.752 85.5 341.416 85.684C341.088 85.86 340.832 86.12 340.648 86.464C340.472 86.8 340.384 87.208 340.384 87.688V91H339.532V84.7H340.348V86.428L340.216 86.104C340.416 85.648 340.736 85.292 341.176 85.036C341.616 84.772 342.14 84.64 342.748 84.64ZM274.528 110V103.7H275.38V110H274.528ZM274.96 102.308C274.784 102.308 274.636 102.248 274.516 102.128C274.396 102.008 274.336 101.864 274.336 101.696C274.336 101.528 274.396 101.388 274.516 101.276C274.636 101.156 274.784 101.096 274.96 101.096C275.136 101.096 275.284 101.152 275.404 101.264C275.524 101.376 275.584 101.516 275.584 101.684C275.584 101.86 275.524 102.008 275.404 102.128C275.292 102.248 275.144 102.308 274.96 102.308ZM280.259 110.06C279.659 110.06 279.119 109.924 278.639 109.652C278.167 109.38 277.795 109.004 277.523 108.524C277.251 108.036 277.115 107.476 277.115 106.844C277.115 106.204 277.251 105.644 277.523 105.164C277.795 104.684 278.167 104.312 278.639 104.048C279.119 103.776 279.659 103.64 280.259 103.64C280.811 103.64 281.303 103.764 281.735 104.012C282.175 104.26 282.523 104.624 282.779 105.104C283.043 105.576 283.175 106.156 283.175 106.844C283.175 107.524 283.047 108.104 282.791 108.584C282.535 109.064 282.187 109.432 281.747 109.688C281.315 109.936 280.819 110.06 280.259 110.06ZM280.319 109.304C280.767 109.304 281.167 109.204 281.519 109.004C281.879 108.796 282.159 108.508 282.359 108.14C282.567 107.764 282.671 107.332 282.671 106.844C282.671 106.348 282.567 105.916 282.359 105.548C282.159 105.18 281.879 104.896 281.519 104.696C281.167 104.488 280.767 104.384 280.319 104.384C279.879 104.384 279.483 104.488 279.131 104.696C278.779 104.896 278.499 105.18 278.291 105.548C278.083 105.916 277.979 106.348 277.979 106.844C277.979 107.332 278.083 107.764 278.291 108.14C278.499 108.508 278.779 108.796 279.131 109.004C279.483 109.204 279.879 109.304 280.319 109.304ZM282.695 110V108.104L282.779 106.832L282.659 105.56V101.096H283.511V110H282.695ZM288.56 110.06C287.904 110.06 287.328 109.924 286.832 109.652C286.336 109.372 285.948 108.992 285.668 108.512C285.388 108.024 285.248 107.468 285.248 106.844C285.248 106.22 285.38 105.668 285.644 105.188C285.916 104.708 286.284 104.332 286.748 104.06C287.22 103.78 287.748 103.64 288.332 103.64C288.924 103.64 289.448 103.776 289.904 104.048C290.368 104.312 290.732 104.688 290.996 105.176C291.26 105.656 291.392 106.212 291.392 106.844C291.392 106.884 291.388 106.928 291.38 106.976C291.38 107.016 291.38 107.06 291.38 107.108H285.896V106.472H290.924L290.588 106.724C290.588 106.268 290.488 105.864 290.288 105.512C290.096 105.152 289.832 104.872 289.496 104.672C289.16 104.472 288.772 104.372 288.332 104.372C287.9 104.372 287.512 104.472 287.168 104.672C286.824 104.872 286.556 105.152 286.364 105.512C286.172 105.872 286.076 106.284 286.076 106.748V106.88C286.076 107.36 286.18 107.784 286.388 108.152C286.604 108.512 286.9 108.796 287.276 109.004C287.66 109.204 288.096 109.304 288.584 109.304C288.968 109.304 289.324 109.236 289.652 109.1C289.988 108.964 290.276 108.756 290.516 108.476L290.996 109.028C290.716 109.364 290.364 109.62 289.94 109.796C289.524 109.972 289.064 110.06 288.56 110.06ZM296.898 110V108.608L296.862 108.38V106.052C296.862 105.516 296.71 105.104 296.406 104.816C296.11 104.528 295.666 104.384 295.074 104.384C294.666 104.384 294.278 104.452 293.91 104.588C293.542 104.724 293.23 104.904 292.974 105.128L292.59 104.492C292.91 104.22 293.294 104.012 293.742 103.868C294.19 103.716 294.662 103.64 295.158 103.64C295.974 103.64 296.602 103.844 297.042 104.252C297.49 104.652 297.714 105.264 297.714 106.088V110H296.898ZM294.726 110.06C294.254 110.06 293.842 109.984 293.49 109.832C293.146 109.672 292.882 109.456 292.698 109.184C292.514 108.904 292.422 108.584 292.422 108.224C292.422 107.896 292.498 107.6 292.65 107.336C292.81 107.064 293.066 106.848 293.418 106.688C293.778 106.52 294.258 106.436 294.858 106.436H297.03V107.072H294.882C294.274 107.072 293.85 107.18 293.61 107.396C293.378 107.612 293.262 107.88 293.262 108.2C293.262 108.56 293.402 108.848 293.682 109.064C293.962 109.28 294.354 109.388 294.858 109.388C295.338 109.388 295.75 109.28 296.094 109.064C296.446 108.84 296.702 108.52 296.862 108.104L297.054 108.692C296.894 109.108 296.614 109.44 296.214 109.688C295.822 109.936 295.326 110.06 294.726 110.06ZM301.72 110.06C301.2 110.06 300.708 109.988 300.244 109.844C299.78 109.692 299.416 109.504 299.152 109.28L299.536 108.608C299.792 108.8 300.12 108.968 300.52 109.112C300.92 109.248 301.34 109.316 301.78 109.316C302.38 109.316 302.812 109.224 303.076 109.04C303.34 108.848 303.472 108.596 303.472 108.284C303.472 108.052 303.396 107.872 303.244 107.744C303.1 107.608 302.908 107.508 302.668 107.444C302.428 107.372 302.16 107.312 301.864 107.264C301.568 107.216 301.272 107.16 300.976 107.096C300.688 107.032 300.424 106.94 300.184 106.82C299.944 106.692 299.748 106.52 299.596 106.304C299.452 106.088 299.38 105.8 299.38 105.44C299.38 105.096 299.476 104.788 299.668 104.516C299.86 104.244 300.14 104.032 300.508 103.88C300.884 103.72 301.34 103.64 301.876 103.64C302.284 103.64 302.692 103.696 303.1 103.808C303.508 103.912 303.844 104.052 304.108 104.228L303.736 104.912C303.456 104.72 303.156 104.584 302.836 104.504C302.516 104.416 302.196 104.372 301.876 104.372C301.308 104.372 300.888 104.472 300.616 104.672C300.352 104.864 300.22 105.112 300.22 105.416C300.22 105.656 300.292 105.844 300.436 105.98C300.588 106.116 300.784 106.224 301.024 106.304C301.272 106.376 301.54 106.436 301.828 106.484C302.124 106.532 302.416 106.592 302.704 106.664C303 106.728 303.268 106.82 303.508 106.94C303.756 107.052 303.952 107.216 304.096 107.432C304.248 107.64 304.324 107.916 304.324 108.26C304.324 108.628 304.22 108.948 304.012 109.22C303.812 109.484 303.516 109.692 303.124 109.844C302.74 109.988 302.272 110.06 301.72 110.06Z" fill="#6C6C6C"/>
</g>
<rect x="223.52" y="9.5" width="131" height="131" rx="65.5" stroke="#EEEFF2"/>
<g clip-path="url(#clip3_53_4857)">
<rect x="387.02" y="9" width="132" height="132" rx="66" fill="white" fill-opacity="0.4"/>
<path d="M445.242 48.995V45.445C445.242 44.174 444.909 43.513 444.255 42.408C443.458 41.0581 443.032 39.5214 443.02 37.9537C443.009 36.386 443.412 34.8432 444.189 33.4817C444.966 32.1202 446.09 30.9885 447.446 30.2014C448.802 29.4143 450.341 28.9998 451.909 29C454.266 29.0003 456.527 29.9366 458.194 31.6031C459.861 33.2696 460.797 35.5299 460.798 37.887C460.798 38.467 460.798 38.757 460.822 38.919C460.88 39.307 461.062 39.641 461.239 39.987L463.02 43.441L461.62 44.141C461.215 44.343 461.012 44.444 460.871 44.631C460.73 44.818 460.69 45.03 460.611 45.451L460.603 45.493C460.42 46.461 460.219 47.529 459.653 48.203C459.453 48.44 459.205 48.633 458.926 48.77C458.465 48.995 457.898 48.995 456.764 48.995C456.239 48.995 455.713 49.007 455.188 48.995C453.945 48.964 453.02 47.918 453.02 46.705" stroke="#F8E894" stroke-width="1.5" stroke-linecap="round" stroke-linejoin="round"/>
<path d="M455.408 37.5321C454.982 37.5321 454.593 37.3701 454.298 37.1051M455.408 37.5321C455.408 38.6781 454.744 39.7661 453.466 39.7661C452.188 39.7661 451.524 40.8541 451.524 42.0001M455.408 37.5321C457.558 37.5321 457.558 34.1811 455.408 34.1811C455.212 34.1818 455.027 34.2134 454.851 34.2761C454.956 31.7781 451.355 31.1001 450.539 33.4401M450.539 33.4401C451.134 33.8411 451.524 34.5231 451.524 35.2971M450.539 33.4401C448.687 32.1901 446.219 34.4331 447.393 36.4331C445.423 36.7281 445.633 39.7661 447.64 39.7661C447.908 39.766 448.172 39.7012 448.409 39.5772C448.646 39.4533 448.849 39.2738 449.002 39.0541" stroke="#F8E894" stroke-width="1.5" stroke-linecap="round" stroke-linejoin="round"/>
<path d="M421.318 71L417.006 61.2H418.518L422.48 70.244H421.612L425.602 61.2H427.002L422.704 71H421.318ZM432.101 71V69.432L432.031 69.138V66.464C432.031 65.8947 431.863 65.456 431.527 65.148C431.201 64.8307 430.706 64.672 430.043 64.672C429.605 64.672 429.175 64.7467 428.755 64.896C428.335 65.036 427.981 65.2273 427.691 65.47L427.131 64.462C427.514 64.154 427.971 63.9207 428.503 63.762C429.045 63.594 429.609 63.51 430.197 63.51C431.215 63.51 431.999 63.7573 432.549 64.252C433.1 64.7467 433.375 65.5027 433.375 66.52V71H432.101ZM429.665 71.084C429.115 71.084 428.629 70.9907 428.209 70.804C427.799 70.6173 427.481 70.3607 427.257 70.034C427.033 69.698 426.921 69.32 426.921 68.9C426.921 68.4987 427.015 68.1347 427.201 67.808C427.397 67.4813 427.71 67.22 428.139 67.024C428.578 66.828 429.166 66.73 429.903 66.73H432.255V67.696H429.959C429.287 67.696 428.835 67.808 428.601 68.032C428.368 68.256 428.251 68.5267 428.251 68.844C428.251 69.208 428.396 69.502 428.685 69.726C428.975 69.9407 429.376 70.048 429.889 70.048C430.393 70.048 430.832 69.936 431.205 69.712C431.588 69.488 431.863 69.1613 432.031 68.732L432.297 69.656C432.12 70.0947 431.807 70.4447 431.359 70.706C430.911 70.958 430.347 71.084 429.665 71.084ZM435.862 71V60.612H437.206V71H435.862ZM439.773 71V63.58H441.117V71H439.773ZM440.445 62.152C440.183 62.152 439.964 62.068 439.787 61.9C439.619 61.732 439.535 61.5267 439.535 61.284C439.535 61.032 439.619 60.822 439.787 60.654C439.964 60.486 440.183 60.402 440.445 60.402C440.706 60.402 440.921 60.486 441.089 60.654C441.266 60.8127 441.355 61.0133 441.355 61.256C441.355 61.508 441.271 61.7227 441.103 61.9C440.935 62.068 440.715 62.152 440.445 62.152ZM446.749 71.084C446.03 71.084 445.386 70.9253 444.817 70.608C444.257 70.2907 443.813 69.8473 443.487 69.278C443.16 68.7087 442.997 68.046 442.997 67.29C442.997 66.534 443.16 65.876 443.487 65.316C443.813 64.7467 444.257 64.3033 444.817 63.986C445.386 63.6687 446.03 63.51 446.749 63.51C447.374 63.51 447.939 63.65 448.443 63.93C448.947 64.21 449.348 64.63 449.647 65.19C449.955 65.75 450.109 66.45 450.109 67.29C450.109 68.13 449.959 68.83 449.661 69.39C449.371 69.95 448.975 70.3747 448.471 70.664C447.967 70.944 447.393 71.084 446.749 71.084ZM446.861 69.908C447.327 69.908 447.747 69.8007 448.121 69.586C448.503 69.3713 448.802 69.068 449.017 68.676C449.241 68.2747 449.353 67.8127 449.353 67.29C449.353 66.758 449.241 66.3007 449.017 65.918C448.802 65.526 448.503 65.2227 448.121 65.008C447.747 64.7933 447.327 64.686 446.861 64.686C446.385 64.686 445.96 64.7933 445.587 65.008C445.213 65.2227 444.915 65.526 444.691 65.918C444.467 66.3007 444.355 66.758 444.355 67.29C444.355 67.8127 444.467 68.2747 444.691 68.676C444.915 69.068 445.213 69.3713 445.587 69.586C445.96 69.8007 446.385 69.908 446.861 69.908ZM449.395 71V68.998L449.479 67.276L449.339 65.554V60.612H450.683V71H449.395ZM457.832 71V69.432L457.762 69.138V66.464C457.762 65.8947 457.594 65.456 457.258 65.148C456.931 64.8307 456.436 64.672 455.774 64.672C455.335 64.672 454.906 64.7467 454.486 64.896C454.066 65.036 453.711 65.2273 453.422 65.47L452.862 64.462C453.244 64.154 453.702 63.9207 454.234 63.762C454.775 63.594 455.34 63.51 455.928 63.51C456.945 63.51 457.729 63.7573 458.28 64.252C458.83 64.7467 459.106 65.5027 459.106 66.52V71H457.832ZM455.396 71.084C454.845 71.084 454.36 70.9907 453.94 70.804C453.529 70.6173 453.212 70.3607 452.988 70.034C452.764 69.698 452.652 69.32 452.652 68.9C452.652 68.4987 452.745 68.1347 452.932 67.808C453.128 67.4813 453.44 67.22 453.87 67.024C454.308 66.828 454.896 66.73 455.634 66.73H457.986V67.696H455.69C455.018 67.696 454.565 67.808 454.332 68.032C454.098 68.256 453.982 68.5267 453.982 68.844C453.982 69.208 454.126 69.502 454.416 69.726C454.705 69.9407 455.106 70.048 455.62 70.048C456.124 70.048 456.562 69.936 456.936 69.712C457.318 69.488 457.594 69.1613 457.762 68.732L458.028 69.656C457.85 70.0947 457.538 70.4447 457.09 70.706C456.642 70.958 456.077 71.084 455.396 71.084ZM464.141 71.084C463.394 71.084 462.816 70.8833 462.405 70.482C461.994 70.0807 461.789 69.5067 461.789 68.76V61.956H463.133V68.704C463.133 69.1053 463.231 69.4133 463.427 69.628C463.632 69.8427 463.922 69.95 464.295 69.95C464.715 69.95 465.065 69.8333 465.345 69.6L465.765 70.566C465.56 70.7433 465.312 70.874 465.023 70.958C464.743 71.042 464.449 71.084 464.141 71.084ZM460.529 64.686V63.58H465.261V64.686H460.529ZM467.39 71V63.58H468.734V71H467.39ZM468.062 62.152C467.8 62.152 467.581 62.068 467.404 61.9C467.236 61.732 467.152 61.5267 467.152 61.284C467.152 61.032 467.236 60.822 467.404 60.654C467.581 60.486 467.8 60.402 468.062 60.402C468.323 60.402 468.538 60.486 468.706 60.654C468.883 60.8127 468.972 61.0133 468.972 61.256C468.972 61.508 468.888 61.7227 468.72 61.9C468.552 62.068 468.332 62.152 468.062 62.152ZM474.478 71.084C473.731 71.084 473.069 70.9207 472.49 70.594C471.911 70.2673 471.454 69.8193 471.118 69.25C470.782 68.6713 470.614 68.018 470.614 67.29C470.614 66.5527 470.782 65.8993 471.118 65.33C471.454 64.7607 471.911 64.3173 472.49 64C473.069 63.6733 473.731 63.51 474.478 63.51C475.215 63.51 475.873 63.6733 476.452 64C477.04 64.3173 477.497 64.7607 477.824 65.33C478.16 65.89 478.328 66.5433 478.328 67.29C478.328 68.0273 478.16 68.6807 477.824 69.25C477.497 69.8193 477.04 70.2673 476.452 70.594C475.873 70.9207 475.215 71.084 474.478 71.084ZM474.478 69.908C474.954 69.908 475.379 69.8007 475.752 69.586C476.135 69.3713 476.433 69.068 476.648 68.676C476.863 68.2747 476.97 67.8127 476.97 67.29C476.97 66.758 476.863 66.3007 476.648 65.918C476.433 65.526 476.135 65.2227 475.752 65.008C475.379 64.7933 474.954 64.686 474.478 64.686C474.002 64.686 473.577 64.7933 473.204 65.008C472.831 65.2227 472.532 65.526 472.308 65.918C472.084 66.3007 471.972 66.758 471.972 67.29C471.972 67.8127 472.084 68.2747 472.308 68.676C472.532 69.068 472.831 69.3713 473.204 69.586C473.577 69.8007 474.002 69.908 474.478 69.908ZM484.149 63.51C484.755 63.51 485.287 63.6267 485.745 63.86C486.211 64.0933 486.575 64.448 486.837 64.924C487.098 65.4 487.229 66.002 487.229 66.73V71H485.885V66.884C485.885 66.1653 485.707 65.624 485.353 65.26C485.007 64.896 484.517 64.714 483.883 64.714C483.407 64.714 482.991 64.8073 482.637 64.994C482.282 65.1807 482.007 65.456 481.811 65.82C481.624 66.184 481.531 66.6367 481.531 67.178V71H480.187V63.58H481.475V65.582L481.265 65.05C481.507 64.5647 481.881 64.1867 482.385 63.916C482.889 63.6453 483.477 63.51 484.149 63.51Z" fill="#1A1A1A"/>
<path d="M400.339 91L396.619 82.6H397.579L401.059 90.508H400.531L404.035 82.6H404.935L401.215 91H400.339ZM408.169 91.06C407.513 91.06 406.937 90.924 406.441 90.652C405.945 90.372 405.557 89.992 405.277 89.512C404.997 89.024 404.857 88.468 404.857 87.844C404.857 87.22 404.989 86.668 405.253 86.188C405.525 85.708 405.893 85.332 406.357 85.06C406.829 84.78 407.357 84.64 407.941 84.64C408.533 84.64 409.057 84.776 409.513 85.048C409.977 85.312 410.341 85.688 410.605 86.176C410.869 86.656 411.001 87.212 411.001 87.844C411.001 87.884 410.997 87.928 410.989 87.976C410.989 88.016 410.989 88.06 410.989 88.108H405.505V87.472H410.533L410.197 87.724C410.197 87.268 410.097 86.864 409.897 86.512C409.705 86.152 409.441 85.872 409.105 85.672C408.769 85.472 408.381 85.372 407.941 85.372C407.509 85.372 407.121 85.472 406.777 85.672C406.433 85.872 406.165 86.152 405.973 86.512C405.781 86.872 405.685 87.284 405.685 87.748V87.88C405.685 88.36 405.789 88.784 405.997 89.152C406.213 89.512 406.509 89.796 406.885 90.004C407.269 90.204 407.705 90.304 408.193 90.304C408.577 90.304 408.933 90.236 409.261 90.1C409.597 89.964 409.885 89.756 410.125 89.476L410.605 90.028C410.325 90.364 409.973 90.62 409.549 90.796C409.133 90.972 408.673 91.06 408.169 91.06ZM412.735 91V84.7H413.551V86.416L413.467 86.116C413.643 85.636 413.939 85.272 414.355 85.024C414.771 84.768 415.287 84.64 415.903 84.64V85.468C415.871 85.468 415.839 85.468 415.807 85.468C415.775 85.46 415.743 85.456 415.711 85.456C415.047 85.456 414.527 85.66 414.151 86.068C413.775 86.468 413.587 87.04 413.587 87.784V91H412.735ZM417.458 91V84.7H418.31V91H417.458ZM417.89 83.308C417.714 83.308 417.566 83.248 417.446 83.128C417.326 83.008 417.266 82.864 417.266 82.696C417.266 82.528 417.326 82.388 417.446 82.276C417.566 82.156 417.714 82.096 417.89 82.096C418.066 82.096 418.214 82.152 418.334 82.264C418.454 82.376 418.514 82.516 418.514 82.684C418.514 82.86 418.454 83.008 418.334 83.128C418.222 83.248 418.074 83.308 417.89 83.308ZM420.825 91V83.908C420.825 83.348 420.989 82.896 421.317 82.552C421.645 82.208 422.117 82.036 422.733 82.036C422.973 82.036 423.205 82.068 423.429 82.132C423.653 82.196 423.841 82.296 423.993 82.432L423.705 83.068C423.585 82.964 423.445 82.888 423.285 82.84C423.125 82.784 422.953 82.756 422.769 82.756C422.409 82.756 422.133 82.856 421.941 83.056C421.749 83.256 421.653 83.552 421.653 83.944V84.904L421.677 85.3V91H420.825ZM419.697 85.408V84.7H423.597V85.408H419.697ZM424.912 93.388C424.616 93.388 424.332 93.34 424.06 93.244C423.796 93.148 423.568 93.004 423.376 92.812L423.772 92.176C423.932 92.328 424.104 92.444 424.288 92.524C424.48 92.612 424.692 92.656 424.924 92.656C425.204 92.656 425.444 92.576 425.644 92.416C425.852 92.264 426.048 91.992 426.232 91.6L426.64 90.676L426.736 90.544L429.328 84.7H430.168L427.012 91.756C426.836 92.164 426.64 92.488 426.424 92.728C426.216 92.968 425.988 93.136 425.74 93.232C425.492 93.336 425.216 93.388 424.912 93.388ZM426.592 91.18L423.688 84.7H424.576L427.144 90.484L426.592 91.18ZM434.557 93.388C434.261 93.388 433.977 93.34 433.705 93.244C433.441 93.148 433.213 93.004 433.021 92.812L433.417 92.176C433.577 92.328 433.749 92.444 433.933 92.524C434.125 92.612 434.337 92.656 434.569 92.656C434.849 92.656 435.089 92.576 435.289 92.416C435.497 92.264 435.693 91.992 435.877 91.6L436.285 90.676L436.381 90.544L438.973 84.7H439.813L436.657 91.756C436.481 92.164 436.285 92.488 436.069 92.728C435.861 92.968 435.633 93.136 435.385 93.232C435.137 93.336 434.861 93.388 434.557 93.388ZM436.237 91.18L433.333 84.7H434.221L436.789 90.484L436.237 91.18ZM443.405 91.06C442.797 91.06 442.249 90.924 441.761 90.652C441.281 90.372 440.901 89.992 440.621 89.512C440.341 89.024 440.201 88.468 440.201 87.844C440.201 87.212 440.341 86.656 440.621 86.176C440.901 85.696 441.281 85.32 441.761 85.048C442.241 84.776 442.789 84.64 443.405 84.64C444.029 84.64 444.581 84.776 445.061 85.048C445.549 85.32 445.929 85.696 446.201 86.176C446.481 86.656 446.621 87.212 446.621 87.844C446.621 88.468 446.481 89.024 446.201 89.512C445.929 89.992 445.549 90.372 445.061 90.652C444.573 90.924 444.021 91.06 443.405 91.06ZM443.405 90.304C443.861 90.304 444.265 90.204 444.617 90.004C444.969 89.796 445.245 89.508 445.445 89.14C445.653 88.764 445.757 88.332 445.757 87.844C445.757 87.348 445.653 86.916 445.445 86.548C445.245 86.18 444.969 85.896 444.617 85.696C444.265 85.488 443.865 85.384 443.417 85.384C442.969 85.384 442.569 85.488 442.217 85.696C441.865 85.896 441.585 86.18 441.377 86.548C441.169 86.916 441.065 87.348 441.065 87.844C441.065 88.332 441.169 88.764 441.377 89.14C441.585 89.508 441.865 89.796 442.217 90.004C442.569 90.204 442.965 90.304 443.405 90.304ZM450.964 91.06C450.428 91.06 449.96 90.96 449.56 90.76C449.16 90.56 448.848 90.26 448.624 89.86C448.408 89.46 448.3 88.96 448.3 88.36V84.7H449.152V88.264C449.152 88.936 449.316 89.444 449.644 89.788C449.98 90.124 450.448 90.292 451.048 90.292C451.488 90.292 451.868 90.204 452.188 90.028C452.516 89.844 452.764 89.58 452.932 89.236C453.108 88.892 453.196 88.48 453.196 88V84.7H454.048V91H453.232V89.272L453.364 89.584C453.164 90.048 452.852 90.412 452.428 90.676C452.012 90.932 451.524 91.06 450.964 91.06ZM456.423 91V84.7H457.239V86.416L457.155 86.116C457.331 85.636 457.627 85.272 458.043 85.024C458.459 84.768 458.975 84.64 459.591 84.64V85.468C459.559 85.468 459.527 85.468 459.495 85.468C459.463 85.46 459.431 85.456 459.399 85.456C458.735 85.456 458.215 85.66 457.839 86.068C457.463 86.468 457.275 87.04 457.275 87.784V91H456.423ZM467.056 91.06C466.4 91.06 465.824 90.924 465.328 90.652C464.832 90.372 464.444 89.992 464.164 89.512C463.884 89.024 463.744 88.468 463.744 87.844C463.744 87.22 463.876 86.668 464.14 86.188C464.412 85.708 464.78 85.332 465.244 85.06C465.716 84.78 466.244 84.64 466.828 84.64C467.42 84.64 467.944 84.776 468.4 85.048C468.864 85.312 469.228 85.688 469.492 86.176C469.756 86.656 469.888 87.212 469.888 87.844C469.888 87.884 469.884 87.928 469.876 87.976C469.876 88.016 469.876 88.06 469.876 88.108H464.392V87.472H469.42L469.084 87.724C469.084 87.268 468.984 86.864 468.784 86.512C468.592 86.152 468.328 85.872 467.992 85.672C467.656 85.472 467.268 85.372 466.828 85.372C466.396 85.372 466.008 85.472 465.664 85.672C465.32 85.872 465.052 86.152 464.86 86.512C464.668 86.872 464.572 87.284 464.572 87.748V87.88C464.572 88.36 464.676 88.784 464.884 89.152C465.1 89.512 465.396 89.796 465.772 90.004C466.156 90.204 466.592 90.304 467.08 90.304C467.464 90.304 467.82 90.236 468.148 90.1C468.484 89.964 468.772 89.756 469.012 89.476L469.492 90.028C469.212 90.364 468.86 90.62 468.436 90.796C468.02 90.972 467.56 91.06 467.056 91.06ZM474.838 84.64C475.35 84.64 475.798 84.74 476.182 84.94C476.574 85.132 476.878 85.428 477.094 85.828C477.318 86.228 477.43 86.732 477.43 87.34V91H476.578V87.424C476.578 86.76 476.41 86.26 476.074 85.924C475.746 85.58 475.282 85.408 474.682 85.408C474.234 85.408 473.842 85.5 473.506 85.684C473.178 85.86 472.922 86.12 472.738 86.464C472.562 86.8 472.474 87.208 472.474 87.688V91H471.622V84.7H472.438V86.428L472.306 86.104C472.506 85.648 472.826 85.292 473.266 85.036C473.706 84.772 474.23 84.64 474.838 84.64ZM482.239 91.06C481.639 91.06 481.099 90.924 480.619 90.652C480.147 90.38 479.775 90.004 479.503 89.524C479.231 89.044 479.095 88.484 479.095 87.844C479.095 87.212 479.231 86.656 479.503 86.176C479.775 85.688 480.147 85.312 480.619 85.048C481.099 84.776 481.639 84.64 482.239 84.64C482.799 84.64 483.295 84.764 483.727 85.012C484.167 85.26 484.515 85.624 484.771 86.104C485.027 86.576 485.155 87.156 485.155 87.844C485.155 88.532 485.023 89.116 484.759 89.596C484.503 90.068 484.155 90.432 483.715 90.688C483.283 90.936 482.791 91.06 482.239 91.06ZM482.299 90.304C482.747 90.304 483.147 90.204 483.499 90.004C483.859 89.796 484.139 89.508 484.339 89.14C484.547 88.764 484.651 88.332 484.651 87.844C484.651 87.356 484.547 86.928 484.339 86.56C484.139 86.192 483.859 85.904 483.499 85.696C483.147 85.488 482.747 85.384 482.299 85.384C481.859 85.384 481.463 85.488 481.111 85.696C480.759 85.904 480.479 86.192 480.271 86.56C480.063 86.928 479.959 87.356 479.959 87.844C479.959 88.332 480.063 88.764 480.271 89.14C480.479 89.508 480.759 89.796 481.111 90.004C481.463 90.204 481.859 90.304 482.299 90.304ZM484.639 93.328V89.128L484.759 87.856L484.675 86.596V84.7H485.491V93.328H484.639ZM490.468 91.06C489.932 91.06 489.464 90.96 489.064 90.76C488.664 90.56 488.352 90.26 488.128 89.86C487.912 89.46 487.804 88.96 487.804 88.36V84.7H488.656V88.264C488.656 88.936 488.82 89.444 489.148 89.788C489.484 90.124 489.952 90.292 490.552 90.292C490.992 90.292 491.372 90.204 491.692 90.028C492.02 89.844 492.268 89.58 492.436 89.236C492.612 88.892 492.7 88.48 492.7 88V84.7H493.552V91H492.736V89.272L492.868 89.584C492.668 90.048 492.356 90.412 491.932 90.676C491.516 90.932 491.028 91.06 490.468 91.06ZM495.927 91V84.7H496.779V91H495.927ZM496.359 83.308C496.183 83.308 496.035 83.248 495.915 83.128C495.795 83.008 495.735 82.864 495.735 82.696C495.735 82.528 495.795 82.388 495.915 82.276C496.035 82.156 496.183 82.096 496.359 82.096C496.535 82.096 496.683 82.152 496.803 82.264C496.923 82.376 496.983 82.516 496.983 82.684C496.983 82.86 496.923 83.008 496.803 83.128C496.691 83.248 496.543 83.308 496.359 83.308ZM499.149 91V84.7H499.965V86.416L499.881 86.116C500.057 85.636 500.353 85.272 500.769 85.024C501.185 84.768 501.701 84.64 502.317 84.64V85.468C502.285 85.468 502.253 85.468 502.221 85.468C502.189 85.46 502.157 85.456 502.125 85.456C501.461 85.456 500.941 85.66 500.565 86.068C500.189 86.468 500.001 87.04 500.001 87.784V91H499.149ZM504.19 93.388C503.894 93.388 503.61 93.34 503.338 93.244C503.074 93.148 502.846 93.004 502.654 92.812L503.05 92.176C503.21 92.328 503.382 92.444 503.566 92.524C503.758 92.612 503.97 92.656 504.202 92.656C504.482 92.656 504.722 92.576 504.922 92.416C505.13 92.264 505.326 91.992 505.51 91.6L505.918 90.676L506.014 90.544L508.606 84.7H509.446L506.29 91.756C506.114 92.164 505.918 92.488 505.702 92.728C505.494 92.968 505.266 93.136 505.018 93.232C504.77 93.336 504.494 93.388 504.19 93.388ZM505.87 91.18L502.966 84.7H503.854L506.422 90.484L505.87 91.18Z" fill="#6C6C6C"/>
</g>
<rect x="387.52" y="9.5" width="131" height="131" rx="65.5" stroke="#EEEFF2"/>
<g clip-path="url(#clip4_53_4857)">
<rect x="551.02" y="9" width="132" height="132" rx="66" fill="white" fill-opacity="0.4"/>
<path d="M612.52 41.25L616.645 37.125M614.77 43.5L616.645 41.625M608.33 39.4395L616.58 31.1895C616.862 30.9082 617.243 30.7501 617.641 30.75H623.77C624.168 30.75 624.549 30.908 624.83 31.1893C625.112 31.4706 625.27 31.8522 625.27 32.25V38.379C625.27 38.7768 625.112 39.1583 624.83 39.4395L616.58 47.6895C616.299 47.9707 615.918 48.1287 615.52 48.1287C615.122 48.1287 614.741 47.9707 614.459 47.6895L608.33 41.5605C608.049 41.2792 607.891 40.8977 607.891 40.5C607.891 40.1023 608.049 39.7208 608.33 39.4395Z" stroke="#F8E894" stroke-width="1.5" stroke-linecap="round" stroke-linejoin="round"/>
<path d="M622.27 34.5C622.27 34.6989 622.191 34.8897 622.05 35.0303C621.91 35.171 621.719 35.25 621.52 35.25C621.321 35.25 621.13 35.171 620.99 35.0303C620.849 34.8897 620.77 34.6989 620.77 34.5C620.77 34.3011 620.849 34.1103 620.99 33.9697C621.13 33.829 621.321 33.75 621.52 33.75C621.719 33.75 621.91 33.829 622.05 33.9697C622.191 34.1103 622.27 34.3011 622.27 34.5Z" fill="#F8E894"/>
<path d="M598.99 71V61.2H600.39V69.782H605.696V71H598.99ZM611.713 71V69.432L611.643 69.138V66.464C611.643 65.8947 611.475 65.456 611.139 65.148C610.812 64.8307 610.317 64.672 609.655 64.672C609.216 64.672 608.787 64.7467 608.367 64.896C607.947 65.036 607.592 65.2273 607.303 65.47L606.743 64.462C607.125 64.154 607.583 63.9207 608.115 63.762C608.656 63.594 609.221 63.51 609.809 63.51C610.826 63.51 611.61 63.7573 612.161 64.252C612.711 64.7467 612.987 65.5027 612.987 66.52V71H611.713ZM609.277 71.084C608.726 71.084 608.241 70.9907 607.821 70.804C607.41 70.6173 607.093 70.3607 606.869 70.034C606.645 69.698 606.533 69.32 606.533 68.9C606.533 68.4987 606.626 68.1347 606.813 67.808C607.009 67.4813 607.321 67.22 607.751 67.024C608.189 66.828 608.777 66.73 609.515 66.73H611.867V67.696H609.571C608.899 67.696 608.446 67.808 608.213 68.032C607.979 68.256 607.863 68.5267 607.863 68.844C607.863 69.208 608.007 69.502 608.297 69.726C608.586 69.9407 608.987 70.048 609.501 70.048C610.005 70.048 610.443 69.936 610.817 69.712C611.199 69.488 611.475 69.1613 611.643 68.732L611.909 69.656C611.731 70.0947 611.419 70.4447 610.971 70.706C610.523 70.958 609.958 71.084 609.277 71.084ZM619.408 71.084C618.773 71.084 618.199 70.944 617.686 70.664C617.182 70.3747 616.78 69.95 616.482 69.39C616.192 68.83 616.048 68.13 616.048 67.29C616.048 66.45 616.197 65.75 616.496 65.19C616.804 64.63 617.21 64.21 617.714 63.93C618.227 63.65 618.792 63.51 619.408 63.51C620.136 63.51 620.78 63.6687 621.34 63.986C621.9 64.3033 622.343 64.7467 622.67 65.316C622.996 65.876 623.16 66.534 623.16 67.29C623.16 68.046 622.996 68.7087 622.67 69.278C622.343 69.8473 621.9 70.2907 621.34 70.608C620.78 70.9253 620.136 71.084 619.408 71.084ZM615.474 71V60.612H616.818V65.554L616.678 67.276L616.762 68.998V71H615.474ZM619.296 69.908C619.772 69.908 620.196 69.8007 620.57 69.586C620.952 69.3713 621.251 69.068 621.466 68.676C621.69 68.2747 621.802 67.8127 621.802 67.29C621.802 66.758 621.69 66.3007 621.466 65.918C621.251 65.526 620.952 65.2227 620.57 65.008C620.196 64.7933 619.772 64.686 619.296 64.686C618.829 64.686 618.404 64.7933 618.022 65.008C617.648 65.2227 617.35 65.526 617.126 65.918C616.911 66.3007 616.804 66.758 616.804 67.29C616.804 67.8127 616.911 68.2747 617.126 68.676C617.35 69.068 617.648 69.3713 618.022 69.586C618.404 69.8007 618.829 69.908 619.296 69.908ZM628.321 71.084C627.527 71.084 626.827 70.9207 626.221 70.594C625.623 70.2673 625.157 69.8193 624.821 69.25C624.494 68.6807 624.331 68.0273 624.331 67.29C624.331 66.5527 624.489 65.8993 624.807 65.33C625.133 64.7607 625.577 64.3173 626.137 64C626.706 63.6733 627.345 63.51 628.055 63.51C628.773 63.51 629.408 63.6687 629.959 63.986C630.509 64.3033 630.939 64.7513 631.247 65.33C631.564 65.8993 631.723 66.5667 631.723 67.332C631.723 67.388 631.718 67.4533 631.709 67.528C631.709 67.6027 631.704 67.6727 631.695 67.738H625.381V66.772H630.995L630.449 67.108C630.458 66.632 630.36 66.2073 630.155 65.834C629.949 65.4607 629.665 65.1713 629.301 64.966C628.946 64.7513 628.531 64.644 628.055 64.644C627.588 64.644 627.173 64.7513 626.809 64.966C626.445 65.1713 626.16 65.4653 625.955 65.848C625.749 66.2213 625.647 66.6507 625.647 67.136V67.36C625.647 67.8547 625.759 68.298 625.983 68.69C626.216 69.0727 626.538 69.3713 626.949 69.586C627.359 69.8007 627.831 69.908 628.363 69.908C628.801 69.908 629.198 69.8333 629.553 69.684C629.917 69.5347 630.234 69.3107 630.505 69.012L631.247 69.88C630.911 70.272 630.491 70.5707 629.987 70.776C629.492 70.9813 628.937 71.084 628.321 71.084ZM633.589 71V60.612H634.933V71H633.589Z" fill="#1A1A1A"/>
<path d="M568.349 91V82.6H571.493C572.205 82.6 572.817 82.716 573.329 82.948C573.841 83.172 574.233 83.5 574.505 83.932C574.785 84.356 574.925 84.872 574.925 85.48C574.925 86.072 574.785 86.584 574.505 87.016C574.233 87.44 573.841 87.768 573.329 88C572.817 88.232 572.205 88.348 571.493 88.348H568.841L569.237 87.928V91H568.349ZM569.237 88L568.841 87.568H571.469C572.309 87.568 572.945 87.388 573.377 87.028C573.817 86.66 574.037 86.144 574.037 85.48C574.037 84.808 573.817 84.288 573.377 83.92C572.945 83.552 572.309 83.368 571.469 83.368H568.841L569.237 82.948V88ZM579.386 91.06C578.85 91.06 578.382 90.96 577.982 90.76C577.582 90.56 577.27 90.26 577.046 89.86C576.83 89.46 576.722 88.96 576.722 88.36V84.7H577.574V88.264C577.574 88.936 577.738 89.444 578.066 89.788C578.402 90.124 578.87 90.292 579.47 90.292C579.91 90.292 580.29 90.204 580.61 90.028C580.938 89.844 581.186 89.58 581.354 89.236C581.53 88.892 581.618 88.48 581.618 88V84.7H582.47V91H581.654V89.272L581.786 89.584C581.586 90.048 581.274 90.412 580.85 90.676C580.434 90.932 579.946 91.06 579.386 91.06ZM586.837 91.06C586.245 91.06 585.789 90.9 585.469 90.58C585.149 90.26 584.989 89.808 584.989 89.224V83.308H585.841V89.176C585.841 89.544 585.933 89.828 586.117 90.028C586.309 90.228 586.581 90.328 586.933 90.328C587.309 90.328 587.621 90.22 587.869 90.004L588.169 90.616C588.001 90.768 587.797 90.88 587.557 90.952C587.325 91.024 587.085 91.06 586.837 91.06ZM583.861 85.408V84.7H587.761V85.408H583.861ZM596.808 91V89.608L596.772 89.38V87.052C596.772 86.516 596.62 86.104 596.316 85.816C596.02 85.528 595.576 85.384 594.984 85.384C594.576 85.384 594.188 85.452 593.82 85.588C593.452 85.724 593.14 85.904 592.884 86.128L592.5 85.492C592.82 85.22 593.204 85.012 593.652 84.868C594.1 84.716 594.572 84.64 595.068 84.64C595.884 84.64 596.512 84.844 596.952 85.252C597.4 85.652 597.624 86.264 597.624 87.088V91H596.808ZM594.636 91.06C594.164 91.06 593.752 90.984 593.4 90.832C593.056 90.672 592.792 90.456 592.608 90.184C592.424 89.904 592.332 89.584 592.332 89.224C592.332 88.896 592.408 88.6 592.56 88.336C592.72 88.064 592.976 87.848 593.328 87.688C593.688 87.52 594.168 87.436 594.768 87.436H596.94V88.072H594.792C594.184 88.072 593.76 88.18 593.52 88.396C593.288 88.612 593.172 88.88 593.172 89.2C593.172 89.56 593.312 89.848 593.592 90.064C593.872 90.28 594.264 90.388 594.768 90.388C595.248 90.388 595.66 90.28 596.004 90.064C596.356 89.84 596.612 89.52 596.772 89.104L596.964 89.692C596.804 90.108 596.524 90.44 596.124 90.688C595.732 90.936 595.236 91.06 594.636 91.06ZM606.295 84.64C606.807 84.64 607.255 84.74 607.639 84.94C608.031 85.132 608.335 85.428 608.551 85.828C608.775 86.228 608.887 86.732 608.887 87.34V91H608.035V87.424C608.035 86.76 607.867 86.26 607.531 85.924C607.203 85.58 606.739 85.408 606.139 85.408C605.691 85.408 605.299 85.5 604.963 85.684C604.635 85.86 604.379 86.12 604.195 86.464C604.019 86.8 603.931 87.208 603.931 87.688V91H603.079V84.7H603.895V86.428L603.763 86.104C603.963 85.648 604.283 85.292 604.723 85.036C605.163 84.772 605.687 84.64 606.295 84.64ZM615.136 91V89.608L615.1 89.38V87.052C615.1 86.516 614.948 86.104 614.644 85.816C614.348 85.528 613.904 85.384 613.312 85.384C612.904 85.384 612.516 85.452 612.148 85.588C611.78 85.724 611.468 85.904 611.212 86.128L610.828 85.492C611.148 85.22 611.532 85.012 611.98 84.868C612.428 84.716 612.9 84.64 613.396 84.64C614.212 84.64 614.84 84.844 615.28 85.252C615.728 85.652 615.952 86.264 615.952 87.088V91H615.136ZM612.964 91.06C612.492 91.06 612.08 90.984 611.728 90.832C611.384 90.672 611.12 90.456 610.936 90.184C610.752 89.904 610.66 89.584 610.66 89.224C610.66 88.896 610.736 88.6 610.888 88.336C611.048 88.064 611.304 87.848 611.656 87.688C612.016 87.52 612.496 87.436 613.096 87.436H615.268V88.072H613.12C612.512 88.072 612.088 88.18 611.848 88.396C611.616 88.612 611.5 88.88 611.5 89.2C611.5 89.56 611.64 89.848 611.92 90.064C612.2 90.28 612.592 90.388 613.096 90.388C613.576 90.388 613.988 90.28 614.332 90.064C614.684 89.84 614.94 89.52 615.1 89.104L615.292 89.692C615.132 90.108 614.852 90.44 614.452 90.688C614.06 90.936 613.564 91.06 612.964 91.06ZM626.139 84.64C626.651 84.64 627.095 84.74 627.471 84.94C627.855 85.132 628.151 85.428 628.359 85.828C628.575 86.228 628.683 86.732 628.683 87.34V91H627.831V87.424C627.831 86.76 627.671 86.26 627.351 85.924C627.039 85.58 626.595 85.408 626.019 85.408C625.587 85.408 625.211 85.5 624.891 85.684C624.579 85.86 624.335 86.12 624.159 86.464C623.991 86.8 623.907 87.208 623.907 87.688V91H623.055V87.424C623.055 86.76 622.895 86.26 622.575 85.924C622.255 85.58 621.807 85.408 621.231 85.408C620.807 85.408 620.435 85.5 620.115 85.684C619.795 85.86 619.547 86.12 619.371 86.464C619.203 86.8 619.119 87.208 619.119 87.688V91H618.267V84.7H619.083V86.404L618.951 86.104C619.143 85.648 619.451 85.292 619.875 85.036C620.307 84.772 620.815 84.64 621.399 84.64C622.015 84.64 622.539 84.796 622.971 85.108C623.403 85.412 623.683 85.872 623.811 86.488L623.475 86.356C623.659 85.844 623.983 85.432 624.447 85.12C624.919 84.8 625.483 84.64 626.139 84.64ZM633.669 91.06C633.013 91.06 632.437 90.924 631.941 90.652C631.445 90.372 631.057 89.992 630.777 89.512C630.497 89.024 630.357 88.468 630.357 87.844C630.357 87.22 630.489 86.668 630.753 86.188C631.025 85.708 631.393 85.332 631.857 85.06C632.329 84.78 632.857 84.64 633.441 84.64C634.033 84.64 634.557 84.776 635.013 85.048C635.477 85.312 635.841 85.688 636.105 86.176C636.369 86.656 636.501 87.212 636.501 87.844C636.501 87.884 636.497 87.928 636.489 87.976C636.489 88.016 636.489 88.06 636.489 88.108H631.005V87.472H636.033L635.697 87.724C635.697 87.268 635.597 86.864 635.397 86.512C635.205 86.152 634.941 85.872 634.605 85.672C634.269 85.472 633.881 85.372 633.441 85.372C633.009 85.372 632.621 85.472 632.277 85.672C631.933 85.872 631.665 86.152 631.473 86.512C631.281 86.872 631.185 87.284 631.185 87.748V87.88C631.185 88.36 631.289 88.784 631.497 89.152C631.713 89.512 632.009 89.796 632.385 90.004C632.769 90.204 633.205 90.304 633.693 90.304C634.077 90.304 634.433 90.236 634.761 90.1C635.097 89.964 635.385 89.756 635.625 89.476L636.105 90.028C635.825 90.364 635.473 90.62 635.049 90.796C634.633 90.972 634.173 91.06 633.669 91.06ZM643.944 91.06C643.336 91.06 642.788 90.924 642.3 90.652C641.82 90.372 641.44 89.992 641.16 89.512C640.88 89.024 640.74 88.468 640.74 87.844C640.74 87.212 640.88 86.656 641.16 86.176C641.44 85.696 641.82 85.32 642.3 85.048C642.78 84.776 643.328 84.64 643.944 84.64C644.568 84.64 645.12 84.776 645.6 85.048C646.088 85.32 646.468 85.696 646.74 86.176C647.02 86.656 647.16 87.212 647.16 87.844C647.16 88.468 647.02 89.024 646.74 89.512C646.468 89.992 646.088 90.372 645.6 90.652C645.112 90.924 644.56 91.06 643.944 91.06ZM643.944 90.304C644.4 90.304 644.804 90.204 645.156 90.004C645.508 89.796 645.784 89.508 645.984 89.14C646.192 88.764 646.296 88.332 646.296 87.844C646.296 87.348 646.192 86.916 645.984 86.548C645.784 86.18 645.508 85.896 645.156 85.696C644.804 85.488 644.404 85.384 643.956 85.384C643.508 85.384 643.108 85.488 642.756 85.696C642.404 85.896 642.124 86.18 641.916 86.548C641.708 86.916 641.604 87.348 641.604 87.844C641.604 88.332 641.708 88.764 641.916 89.14C642.124 89.508 642.404 89.796 642.756 90.004C643.108 90.204 643.504 90.304 643.944 90.304ZM652.115 84.64C652.627 84.64 653.075 84.74 653.459 84.94C653.851 85.132 654.155 85.428 654.371 85.828C654.595 86.228 654.707 86.732 654.707 87.34V91H653.855V87.424C653.855 86.76 653.687 86.26 653.351 85.924C653.023 85.58 652.559 85.408 651.959 85.408C651.511 85.408 651.119 85.5 650.783 85.684C650.455 85.86 650.199 86.12 650.015 86.464C649.839 86.8 649.751 87.208 649.751 87.688V91H648.899V84.7H649.715V86.428L649.583 86.104C649.783 85.648 650.103 85.292 650.543 85.036C650.983 84.772 651.507 84.64 652.115 84.64ZM660.149 91V84.7H661.001V91H660.149ZM660.581 83.308C660.405 83.308 660.257 83.248 660.137 83.128C660.017 83.008 659.957 82.864 659.957 82.696C659.957 82.528 660.017 82.388 660.137 82.276C660.257 82.156 660.405 82.096 660.581 82.096C660.757 82.096 660.905 82.152 661.025 82.264C661.145 82.376 661.205 82.516 661.205 82.684C661.205 82.86 661.145 83.008 661.025 83.128C660.913 83.248 660.765 83.308 660.581 83.308ZM665.364 91.06C664.772 91.06 664.316 90.9 663.996 90.58C663.676 90.26 663.516 89.808 663.516 89.224V83.308H664.368V89.176C664.368 89.544 664.46 89.828 664.644 90.028C664.836 90.228 665.108 90.328 665.46 90.328C665.836 90.328 666.148 90.22 666.396 90.004L666.696 90.616C666.528 90.768 666.324 90.88 666.084 90.952C665.852 91.024 665.612 91.06 665.364 91.06ZM662.388 85.408V84.7H666.288V85.408H662.388Z" fill="#6C6C6C"/>
</g>
<rect x="551.52" y="9.5" width="131" height="131" rx="65.5" stroke="#EEEFF2"/>
<g clip-path="url(#clip5_53_4857)">
<rect x="715.02" y="9" width="132" height="132" rx="66" fill="white" fill-opacity="0.4"/>
<path d="M789.819 31.4291C789.799 31.1097 789.663 30.8087 789.437 30.5825C789.211 30.3563 788.91 30.2206 788.59 30.2009C787.436 30.1325 784.487 30.2375 782.039 32.6853L781.537 33.1878H775.99C775.818 33.1874 775.647 33.2212 775.488 33.2871C775.329 33.3531 775.185 33.45 775.063 33.5722L771.843 36.7916C771.67 36.964 771.549 37.1811 771.493 37.4185C771.438 37.6559 771.449 37.9042 771.526 38.1355C771.603 38.3668 771.744 38.572 771.931 38.7281C772.118 38.8841 772.346 38.9849 772.587 39.0191L776.256 39.5309L780.489 43.7647L781.001 47.4378C781.036 47.6791 781.137 47.9061 781.293 48.0933C781.449 48.2804 781.654 48.4204 781.885 48.4975C782.117 48.5746 782.365 48.5857 782.602 48.5297C782.839 48.4737 783.056 48.3527 783.229 48.1803L786.449 44.96C786.571 44.8385 786.668 44.694 786.734 44.5349C786.8 44.3757 786.834 44.2051 786.833 44.0328V38.4828L787.335 37.9812C789.782 35.5316 789.888 32.5841 789.819 31.4291ZM772.593 37.7816C772.583 37.7491 772.582 37.7145 772.59 37.6814C772.598 37.6484 772.615 37.6182 772.639 37.5941L775.858 34.3672C775.893 34.3323 775.941 34.3128 775.99 34.3128H780.412L776.32 38.4041L772.745 37.9053C772.71 37.9014 772.677 37.8877 772.651 37.8658C772.624 37.8438 772.604 37.8146 772.593 37.7816ZM785.707 44.03C785.707 44.0796 785.687 44.1272 785.652 44.1622L782.434 47.3816C782.409 47.4063 782.378 47.4237 782.345 47.4319C782.311 47.4401 782.275 47.4388 782.242 47.428C782.209 47.4172 782.18 47.3974 782.157 47.3708C782.135 47.3442 782.12 47.3119 782.115 47.2775L781.616 43.7L785.707 39.6078V44.03ZM786.539 37.1862L781.02 42.7044L777.316 39.0003L782.835 33.4803C783.575 32.7359 784.465 32.1583 785.446 31.7864C786.428 31.4145 787.477 31.2568 788.525 31.3241C788.57 31.3278 788.612 31.3477 788.643 31.3801C788.675 31.4125 788.694 31.4552 788.696 31.5003C788.763 32.5468 788.605 33.5955 788.233 34.576C787.861 35.5565 787.284 36.4461 786.54 37.1853L786.539 37.1862ZM778.395 44.8419C777.99 45.7353 776.626 47.8128 772.77 47.8128C772.621 47.8128 772.478 47.7535 772.372 47.6481C772.267 47.5426 772.207 47.3995 772.207 47.2503C772.207 43.3944 774.285 42.0303 775.178 41.6253C775.246 41.5945 775.318 41.5773 775.392 41.5746C775.466 41.5719 775.54 41.5837 775.609 41.6095C775.678 41.6353 775.742 41.6744 775.796 41.7248C775.85 41.7751 775.894 41.8356 775.925 41.9028C775.955 41.97 775.973 42.0426 775.975 42.1165C775.978 42.1904 775.966 42.2641 775.94 42.3334C775.915 42.4027 775.876 42.4662 775.825 42.5204C775.775 42.5746 775.714 42.6183 775.647 42.6491C774.991 42.9462 773.535 43.9166 773.353 46.6719C776.108 46.49 777.079 45.0294 777.376 44.3778C777.407 44.3106 777.45 44.2501 777.505 44.1998C777.559 44.1494 777.622 44.1103 777.692 44.0845C777.761 44.0587 777.835 44.0469 777.908 44.0496C777.982 44.0523 778.055 44.0695 778.122 44.1003C778.189 44.1311 778.25 44.1748 778.3 44.229C778.351 44.2831 778.39 44.3467 778.415 44.416C778.441 44.4853 778.453 44.5589 778.45 44.6328C778.448 44.7067 778.43 44.7793 778.4 44.8466L778.395 44.8419Z" fill="#F8E894"/>
<path d="M755.49 71V61.2H756.89V69.782H762.196V71H755.49ZM768.213 71V69.432L768.143 69.138V66.464C768.143 65.8947 767.975 65.456 767.639 65.148C767.312 64.8307 766.817 64.672 766.155 64.672C765.716 64.672 765.287 64.7467 764.867 64.896C764.447 65.036 764.092 65.2273 763.803 65.47L763.243 64.462C763.625 64.154 764.083 63.9207 764.615 63.762C765.156 63.594 765.721 63.51 766.309 63.51C767.326 63.51 768.11 63.7573 768.661 64.252C769.211 64.7467 769.487 65.5027 769.487 66.52V71H768.213ZM765.777 71.084C765.226 71.084 764.741 70.9907 764.321 70.804C763.91 70.6173 763.593 70.3607 763.369 70.034C763.145 69.698 763.033 69.32 763.033 68.9C763.033 68.4987 763.126 68.1347 763.313 67.808C763.509 67.4813 763.821 67.22 764.251 67.024C764.689 66.828 765.277 66.73 766.015 66.73H768.367V67.696H766.071C765.399 67.696 764.946 67.808 764.713 68.032C764.479 68.256 764.363 68.5267 764.363 68.844C764.363 69.208 764.507 69.502 764.797 69.726C765.086 69.9407 765.487 70.048 766.001 70.048C766.505 70.048 766.943 69.936 767.317 69.712C767.699 69.488 767.975 69.1613 768.143 68.732L768.409 69.656C768.231 70.0947 767.919 70.4447 767.471 70.706C767.023 70.958 766.458 71.084 765.777 71.084ZM775.096 71.084C774.461 71.084 773.901 70.9673 773.416 70.734C772.94 70.5007 772.566 70.146 772.296 69.67C772.034 69.1847 771.904 68.578 771.904 67.85V63.58H773.248V67.696C773.248 68.424 773.42 68.97 773.766 69.334C774.12 69.698 774.615 69.88 775.25 69.88C775.716 69.88 776.122 69.7867 776.468 69.6C776.813 69.404 777.079 69.124 777.266 68.76C777.452 68.3867 777.546 67.9387 777.546 67.416V63.58H778.89V71H777.616V68.998L777.826 69.53C777.583 70.0247 777.219 70.4073 776.734 70.678C776.248 70.9487 775.702 71.084 775.096 71.084ZM785.41 63.51C786.017 63.51 786.549 63.6267 787.006 63.86C787.473 64.0933 787.837 64.448 788.098 64.924C788.36 65.4 788.49 66.002 788.49 66.73V71H787.146V66.884C787.146 66.1653 786.969 65.624 786.614 65.26C786.269 64.896 785.779 64.714 785.144 64.714C784.668 64.714 784.253 64.8073 783.898 64.994C783.544 65.1807 783.268 65.456 783.072 65.82C782.886 66.184 782.792 66.6367 782.792 67.178V71H781.448V63.58H782.736V65.582L782.526 65.05C782.769 64.5647 783.142 64.1867 783.646 63.916C784.15 63.6453 784.738 63.51 785.41 63.51ZM794.212 71.084C793.456 71.084 792.779 70.9207 792.182 70.594C791.594 70.2673 791.132 69.8193 790.796 69.25C790.46 68.6807 790.292 68.0273 790.292 67.29C790.292 66.5527 790.46 65.8993 790.796 65.33C791.132 64.7607 791.594 64.3173 792.182 64C792.779 63.6733 793.456 63.51 794.212 63.51C794.884 63.51 795.481 63.6453 796.004 63.916C796.536 64.1773 796.946 64.5693 797.236 65.092L796.214 65.75C795.971 65.386 795.672 65.12 795.318 64.952C794.972 64.7747 794.599 64.686 794.198 64.686C793.712 64.686 793.278 64.7933 792.896 65.008C792.513 65.2227 792.21 65.526 791.986 65.918C791.762 66.3007 791.65 66.758 791.65 67.29C791.65 67.822 791.762 68.284 791.986 68.676C792.21 69.068 792.513 69.3713 792.896 69.586C793.278 69.8007 793.712 69.908 794.198 69.908C794.599 69.908 794.972 69.824 795.318 69.656C795.672 69.4787 795.971 69.208 796.214 68.844L797.236 69.488C796.946 70.0013 796.536 70.398 796.004 70.678C795.481 70.9487 794.884 71.084 794.212 71.084ZM802.842 63.51C803.449 63.51 803.981 63.6267 804.438 63.86C804.905 64.0933 805.269 64.448 805.53 64.924C805.791 65.4 805.922 66.002 805.922 66.73V71H804.578V66.884C804.578 66.1653 804.401 65.624 804.046 65.26C803.701 64.896 803.211 64.714 802.576 64.714C802.1 64.714 801.685 64.8073 801.33 64.994C800.975 65.1807 800.7 65.456 800.504 65.82C800.317 66.184 800.224 66.6367 800.224 67.178V71H798.88V60.612H800.224V65.582L799.958 65.05C800.201 64.5647 800.574 64.1867 801.078 63.916C801.582 63.6453 802.17 63.51 802.842 63.51Z" fill="#1A1A1A"/>
<path d="M740.794 91.072C740.17 91.072 739.57 90.972 738.994 90.772C738.426 90.564 737.986 90.3 737.674 89.98L738.022 89.296C738.318 89.584 738.714 89.828 739.21 90.028C739.714 90.22 740.242 90.316 740.794 90.316C741.322 90.316 741.75 90.252 742.078 90.124C742.414 89.988 742.658 89.808 742.81 89.584C742.97 89.36 743.05 89.112 743.05 88.84C743.05 88.512 742.954 88.248 742.762 88.048C742.578 87.848 742.334 87.692 742.03 87.58C741.726 87.46 741.39 87.356 741.022 87.268C740.654 87.18 740.286 87.088 739.918 86.992C739.55 86.888 739.21 86.752 738.898 86.584C738.594 86.416 738.346 86.196 738.154 85.924C737.97 85.644 737.878 85.28 737.878 84.832C737.878 84.416 737.986 84.036 738.202 83.692C738.426 83.34 738.766 83.06 739.222 82.852C739.678 82.636 740.262 82.528 740.974 82.528C741.446 82.528 741.914 82.596 742.378 82.732C742.842 82.86 743.242 83.04 743.578 83.272L743.278 83.98C742.918 83.74 742.534 83.564 742.126 83.452C741.726 83.34 741.338 83.284 740.962 83.284C740.458 83.284 740.042 83.352 739.714 83.488C739.386 83.624 739.142 83.808 738.982 84.04C738.83 84.264 738.754 84.52 738.754 84.808C738.754 85.136 738.846 85.4 739.03 85.6C739.222 85.8 739.47 85.956 739.774 86.068C740.086 86.18 740.426 86.28 740.794 86.368C741.162 86.456 741.526 86.552 741.886 86.656C742.254 86.76 742.59 86.896 742.894 87.064C743.206 87.224 743.454 87.44 743.638 87.712C743.83 87.984 743.926 88.34 743.926 88.78C743.926 89.188 743.814 89.568 743.59 89.92C743.366 90.264 743.022 90.544 742.558 90.76C742.102 90.968 741.514 91.072 740.794 91.072ZM748.357 91.06C747.701 91.06 747.125 90.924 746.629 90.652C746.133 90.372 745.745 89.992 745.465 89.512C745.185 89.024 745.045 88.468 745.045 87.844C745.045 87.22 745.177 86.668 745.441 86.188C745.713 85.708 746.081 85.332 746.545 85.06C747.017 84.78 747.545 84.64 748.129 84.64C748.721 84.64 749.245 84.776 749.701 85.048C750.165 85.312 750.529 85.688 750.793 86.176C751.057 86.656 751.189 87.212 751.189 87.844C751.189 87.884 751.185 87.928 751.177 87.976C751.177 88.016 751.177 88.06 751.177 88.108H745.693V87.472H750.721L750.385 87.724C750.385 87.268 750.285 86.864 750.085 86.512C749.893 86.152 749.629 85.872 749.293 85.672C748.957 85.472 748.569 85.372 748.129 85.372C747.697 85.372 747.309 85.472 746.965 85.672C746.621 85.872 746.353 86.152 746.161 86.512C745.969 86.872 745.873 87.284 745.873 87.748V87.88C745.873 88.36 745.977 88.784 746.185 89.152C746.401 89.512 746.697 89.796 747.073 90.004C747.457 90.204 747.893 90.304 748.381 90.304C748.765 90.304 749.121 90.236 749.449 90.1C749.785 89.964 750.073 89.756 750.313 89.476L750.793 90.028C750.513 90.364 750.161 90.62 749.737 90.796C749.321 90.972 748.861 91.06 748.357 91.06ZM754.915 91.06C754.323 91.06 753.867 90.9 753.547 90.58C753.227 90.26 753.067 89.808 753.067 89.224V83.308H753.919V89.176C753.919 89.544 754.011 89.828 754.195 90.028C754.387 90.228 754.659 90.328 755.011 90.328C755.387 90.328 755.699 90.22 755.947 90.004L756.247 90.616C756.079 90.768 755.875 90.88 755.635 90.952C755.403 91.024 755.163 91.06 754.915 91.06ZM751.939 85.408V84.7H755.839V85.408H751.939ZM762.93 91.06C762.338 91.06 761.882 90.9 761.562 90.58C761.242 90.26 761.082 89.808 761.082 89.224V83.308H761.934V89.176C761.934 89.544 762.026 89.828 762.21 90.028C762.402 90.228 762.674 90.328 763.026 90.328C763.402 90.328 763.714 90.22 763.962 90.004L764.262 90.616C764.094 90.768 763.89 90.88 763.65 90.952C763.418 91.024 763.178 91.06 762.93 91.06ZM759.954 85.408V84.7H763.854V85.408H759.954ZM765.813 91V84.7H766.665V91H765.813ZM766.245 83.308C766.069 83.308 765.921 83.248 765.801 83.128C765.681 83.008 765.621 82.864 765.621 82.696C765.621 82.528 765.681 82.388 765.801 82.276C765.921 82.156 766.069 82.096 766.245 82.096C766.421 82.096 766.569 82.152 766.689 82.264C766.809 82.376 766.869 82.516 766.869 82.684C766.869 82.86 766.809 83.008 766.689 83.128C766.577 83.248 766.429 83.308 766.245 83.308ZM776.908 84.64C777.42 84.64 777.864 84.74 778.24 84.94C778.624 85.132 778.92 85.428 779.128 85.828C779.344 86.228 779.452 86.732 779.452 87.34V91H778.6V87.424C778.6 86.76 778.44 86.26 778.12 85.924C777.808 85.58 777.364 85.408 776.788 85.408C776.356 85.408 775.98 85.5 775.66 85.684C775.348 85.86 775.104 86.12 774.928 86.464C774.76 86.8 774.676 87.208 774.676 87.688V91H773.824V87.424C773.824 86.76 773.664 86.26 773.344 85.924C773.024 85.58 772.576 85.408 772 85.408C771.576 85.408 771.204 85.5 770.884 85.684C770.564 85.86 770.316 86.12 770.14 86.464C769.972 86.8 769.888 87.208 769.888 87.688V91H769.036V84.7H769.852V86.404L769.72 86.104C769.912 85.648 770.22 85.292 770.644 85.036C771.076 84.772 771.584 84.64 772.168 84.64C772.784 84.64 773.308 84.796 773.74 85.108C774.172 85.412 774.452 85.872 774.58 86.488L774.244 86.356C774.428 85.844 774.752 85.432 775.216 85.12C775.688 84.8 776.252 84.64 776.908 84.64ZM784.439 91.06C783.783 91.06 783.207 90.924 782.711 90.652C782.215 90.372 781.827 89.992 781.547 89.512C781.267 89.024 781.127 88.468 781.127 87.844C781.127 87.22 781.259 86.668 781.523 86.188C781.795 85.708 782.163 85.332 782.627 85.06C783.099 84.78 783.627 84.64 784.211 84.64C784.803 84.64 785.327 84.776 785.783 85.048C786.247 85.312 786.611 85.688 786.875 86.176C787.139 86.656 787.271 87.212 787.271 87.844C787.271 87.884 787.267 87.928 787.259 87.976C787.259 88.016 787.259 88.06 787.259 88.108H781.775V87.472H786.803L786.467 87.724C786.467 87.268 786.367 86.864 786.167 86.512C785.975 86.152 785.711 85.872 785.375 85.672C785.039 85.472 784.651 85.372 784.211 85.372C783.779 85.372 783.391 85.472 783.047 85.672C782.703 85.872 782.435 86.152 782.243 86.512C782.051 86.872 781.955 87.284 781.955 87.748V87.88C781.955 88.36 782.059 88.784 782.267 89.152C782.483 89.512 782.779 89.796 783.155 90.004C783.539 90.204 783.975 90.304 784.463 90.304C784.847 90.304 785.203 90.236 785.531 90.1C785.867 89.964 786.155 89.756 786.395 89.476L786.875 90.028C786.595 90.364 786.243 90.62 785.819 90.796C785.403 90.972 784.943 91.06 784.439 91.06ZM789.005 91V82.096H789.857V91H789.005ZM792.228 91V84.7H793.08V91H792.228ZM792.66 83.308C792.484 83.308 792.336 83.248 792.216 83.128C792.096 83.008 792.036 82.864 792.036 82.696C792.036 82.528 792.096 82.388 792.216 82.276C792.336 82.156 792.484 82.096 792.66 82.096C792.836 82.096 792.984 82.152 793.104 82.264C793.224 82.376 793.284 82.516 793.284 82.684C793.284 82.86 793.224 83.008 793.104 83.128C792.992 83.248 792.844 83.308 792.66 83.308ZM798.666 84.64C799.178 84.64 799.626 84.74 800.01 84.94C800.402 85.132 800.706 85.428 800.922 85.828C801.146 86.228 801.258 86.732 801.258 87.34V91H800.406V87.424C800.406 86.76 800.238 86.26 799.902 85.924C799.574 85.58 799.11 85.408 798.51 85.408C798.062 85.408 797.67 85.5 797.334 85.684C797.006 85.86 796.75 86.12 796.566 86.464C796.39 86.8 796.302 87.208 796.302 87.688V91H795.45V84.7H796.266V86.428L796.134 86.104C796.334 85.648 796.654 85.292 797.094 85.036C797.534 84.772 798.058 84.64 798.666 84.64ZM806.236 91.06C805.58 91.06 805.004 90.924 804.508 90.652C804.012 90.372 803.624 89.992 803.344 89.512C803.064 89.024 802.924 88.468 802.924 87.844C802.924 87.22 803.056 86.668 803.32 86.188C803.592 85.708 803.96 85.332 804.424 85.06C804.896 84.78 805.424 84.64 806.008 84.64C806.6 84.64 807.124 84.776 807.58 85.048C808.044 85.312 808.408 85.688 808.672 86.176C808.936 86.656 809.068 87.212 809.068 87.844C809.068 87.884 809.064 87.928 809.056 87.976C809.056 88.016 809.056 88.06 809.056 88.108H803.572V87.472H808.6L808.264 87.724C808.264 87.268 808.164 86.864 807.964 86.512C807.772 86.152 807.508 85.872 807.172 85.672C806.836 85.472 806.448 85.372 806.008 85.372C805.576 85.372 805.188 85.472 804.844 85.672C804.5 85.872 804.232 86.152 804.04 86.512C803.848 86.872 803.752 87.284 803.752 87.748V87.88C803.752 88.36 803.856 88.784 804.064 89.152C804.28 89.512 804.576 89.796 804.952 90.004C805.336 90.204 805.772 90.304 806.26 90.304C806.644 90.304 807 90.236 807.328 90.1C807.664 89.964 807.952 89.756 808.192 89.476L808.672 90.028C808.392 90.364 808.04 90.62 807.616 90.796C807.2 90.972 806.74 91.06 806.236 91.06ZM815.934 91.06C815.342 91.06 814.886 90.9 814.566 90.58C814.246 90.26 814.086 89.808 814.086 89.224V83.308H814.938V89.176C814.938 89.544 815.03 89.828 815.214 90.028C815.406 90.228 815.678 90.328 816.03 90.328C816.406 90.328 816.718 90.22 816.966 90.004L817.266 90.616C817.098 90.768 816.894 90.88 816.654 90.952C816.422 91.024 816.182 91.06 815.934 91.06ZM812.958 85.408V84.7H816.858V85.408H812.958ZM821.163 91.06C820.555 91.06 820.007 90.924 819.519 90.652C819.039 90.372 818.659 89.992 818.379 89.512C818.099 89.024 817.959 88.468 817.959 87.844C817.959 87.212 818.099 86.656 818.379 86.176C818.659 85.696 819.039 85.32 819.519 85.048C819.999 84.776 820.547 84.64 821.163 84.64C821.787 84.64 822.339 84.776 822.819 85.048C823.307 85.32 823.687 85.696 823.959 86.176C824.239 86.656 824.379 87.212 824.379 87.844C824.379 88.468 824.239 89.024 823.959 89.512C823.687 89.992 823.307 90.372 822.819 90.652C822.331 90.924 821.779 91.06 821.163 91.06ZM821.163 90.304C821.619 90.304 822.023 90.204 822.375 90.004C822.727 89.796 823.003 89.508 823.203 89.14C823.411 88.764 823.515 88.332 823.515 87.844C823.515 87.348 823.411 86.916 823.203 86.548C823.003 86.18 822.727 85.896 822.375 85.696C822.023 85.488 821.623 85.384 821.175 85.384C820.727 85.384 820.327 85.488 819.975 85.696C819.623 85.896 819.343 86.18 819.135 86.548C818.927 86.916 818.823 87.348 818.823 87.844C818.823 88.332 818.927 88.764 819.135 89.14C819.343 89.508 819.623 89.796 819.975 90.004C820.327 90.204 820.723 90.304 821.163 90.304ZM761.583 110V101.096H762.435V110H761.583ZM768.754 110V108.608L768.718 108.38V106.052C768.718 105.516 768.566 105.104 768.262 104.816C767.966 104.528 767.522 104.384 766.93 104.384C766.522 104.384 766.134 104.452 765.766 104.588C765.398 104.724 765.086 104.904 764.83 105.128L764.446 104.492C764.766 104.22 765.15 104.012 765.598 103.868C766.046 103.716 766.518 103.64 767.014 103.64C767.83 103.64 768.458 103.844 768.898 104.252C769.346 104.652 769.57 105.264 769.57 106.088V110H768.754ZM766.582 110.06C766.11 110.06 765.698 109.984 765.346 109.832C765.002 109.672 764.738 109.456 764.554 109.184C764.37 108.904 764.278 108.584 764.278 108.224C764.278 107.896 764.354 107.6 764.506 107.336C764.666 107.064 764.922 106.848 765.274 106.688C765.634 106.52 766.114 106.436 766.714 106.436H768.886V107.072H766.738C766.13 107.072 765.706 107.18 765.466 107.396C765.234 107.612 765.118 107.88 765.118 108.2C765.118 108.56 765.258 108.848 765.538 109.064C765.818 109.28 766.21 109.388 766.714 109.388C767.194 109.388 767.606 109.28 767.95 109.064C768.302 108.84 768.558 108.52 768.718 108.104L768.91 108.692C768.75 109.108 768.47 109.44 768.07 109.688C767.678 109.936 767.182 110.06 766.582 110.06ZM774.488 110.06C773.952 110.06 773.484 109.96 773.084 109.76C772.684 109.56 772.372 109.26 772.148 108.86C771.932 108.46 771.824 107.96 771.824 107.36V103.7H772.676V107.264C772.676 107.936 772.84 108.444 773.168 108.788C773.504 109.124 773.972 109.292 774.572 109.292C775.012 109.292 775.392 109.204 775.712 109.028C776.04 108.844 776.288 108.58 776.456 108.236C776.632 107.892 776.72 107.48 776.72 107V103.7H777.572V110H776.756V108.272L776.888 108.584C776.688 109.048 776.376 109.412 775.952 109.676C775.536 109.932 775.048 110.06 774.488 110.06ZM783.162 103.64C783.674 103.64 784.122 103.74 784.506 103.94C784.898 104.132 785.202 104.428 785.418 104.828C785.642 105.228 785.754 105.732 785.754 106.34V110H784.902V106.424C784.902 105.76 784.734 105.26 784.398 104.924C784.07 104.58 783.606 104.408 783.006 104.408C782.558 104.408 782.166 104.5 781.83 104.684C781.502 104.86 781.246 105.12 781.062 105.464C780.886 105.8 780.798 106.208 780.798 106.688V110H779.946V103.7H780.762V105.428L780.63 105.104C780.83 104.648 781.15 104.292 781.59 104.036C782.03 103.772 782.554 103.64 783.162 103.64ZM790.672 110.06C790.048 110.06 789.488 109.924 788.992 109.652C788.504 109.372 788.12 108.992 787.84 108.512C787.56 108.024 787.42 107.468 787.42 106.844C787.42 106.212 787.56 105.656 787.84 105.176C788.12 104.696 788.504 104.32 788.992 104.048C789.488 103.776 790.048 103.64 790.672 103.64C791.208 103.64 791.692 103.744 792.124 103.952C792.556 104.16 792.896 104.472 793.144 104.888L792.508 105.32C792.292 105 792.024 104.764 791.704 104.612C791.384 104.46 791.036 104.384 790.66 104.384C790.212 104.384 789.808 104.488 789.448 104.696C789.088 104.896 788.804 105.18 788.596 105.548C788.388 105.916 788.284 106.348 788.284 106.844C788.284 107.34 788.388 107.772 788.596 108.14C788.804 108.508 789.088 108.796 789.448 109.004C789.808 109.204 790.212 109.304 790.66 109.304C791.036 109.304 791.384 109.228 791.704 109.076C792.024 108.924 792.292 108.692 792.508 108.38L793.144 108.812C792.896 109.22 792.556 109.532 792.124 109.748C791.692 109.956 791.208 110.06 790.672 110.06ZM797.94 103.64C798.452 103.64 798.9 103.74 799.284 103.94C799.676 104.132 799.98 104.428 800.196 104.828C800.42 105.228 800.532 105.732 800.532 106.34V110H799.68V106.424C799.68 105.76 799.512 105.26 799.176 104.924C798.848 104.58 798.384 104.408 797.784 104.408C797.336 104.408 796.944 104.5 796.608 104.684C796.28 104.86 796.024 105.12 795.84 105.464C795.664 105.8 795.576 106.208 795.576 106.688V110H794.724V101.096H795.576V105.428L795.408 105.104C795.608 104.648 795.928 104.292 796.368 104.036C796.808 103.772 797.332 103.64 797.94 103.64Z" fill="#6C6C6C"/>
</g>
<rect x="715.52" y="9.5" width="131" height="131" rx="65.5" stroke="#EEEFF2"/>
<defs>
<linearGradient id="paint0_linear_53_4857" x1="3.02002" y1="88.5" x2="903.02" y2="88.5" gradientUnits="userSpaceOnUse">
<stop stop-color="#97893B"/>
<stop offset="1" stop-color="#312C13"/>
</linearGradient>
<clipPath id="clip0_53_4857">
<rect x="59.02" y="9" width="132" height="132" rx="66" fill="white"/>
</clipPath>
<clipPath id="clip1_53_4857">
<rect width="24" height="24" fill="white" transform="translate(113.02 27)"/>
</clipPath>
<clipPath id="clip2_53_4857">
<rect x="223.02" y="9" width="132" height="132" rx="66" fill="white"/>
</clipPath>
<clipPath id="clip3_53_4857">
<rect x="387.02" y="9" width="132" height="132" rx="66" fill="white"/>
</clipPath>
<clipPath id="clip4_53_4857">
<rect x="551.02" y="9" width="132" height="132" rx="66" fill="white"/>
</clipPath>
<clipPath id="clip5_53_4857">
<rect x="715.02" y="9" width="132" height="132" rx="66" fill="white"/>
</clipPath>
</defs>
</svg>
